<?xml version="1.0" encoding="UTF-8"?>
<svg version="1.1" viewBox="0 0 1600 1600" width="512" height="512" xmlns="http://www.w3.org/2000/svg">
<path transform="translate(0)" d="m0 0h1600v1600h-1600z" fill="#0155AC"/>
<path transform="translate(775,307)" d="m0 0h43l26 2 33 5 28 6 29 8 18 6 27 11 12 5 15 8 12 6 22 13 11 7 18 13 16 12 10 9 11 9 33 33 7 8 14 17 10 13 14 20 8 13 13 23 6 12 11 24 11 29 8 25 7 28 6 32 3 25 1 14v60l-3 33-5 30-7 32-4 12-5 18 14 2h15l10-3 5-1-1 5-11 12-10 7-7 3-12 1 5 17 17 49 14 41 11 32 9 25 4 13-1 8h-2l-2 4-6 7-7 12-3 7-1 2h-2l-2 5h-2l-1 4h-2l-1 6-4 6-1 6 3 3h2v-5l-2-4 5-9 5-5 2-6h3l1 2h4l-2 6 3-3h5l4-5 6-1v-2l4-1v-2l5-4 5-6h2l-2-4v-5l3-2 3 1 5-2 1-2h4v3l6-2 6-3 3 2 3-8v-3l-6 1-2 5-5-1-3 3h-6l-2-2 1-4h2l1-3 6-1-1-5-2-1 1-2h4v-2l4 1 8-3-2-8-1-13v-7h2l2-8 3 1v-2l-2-1 1-1h5l1-1h8l5-1 2-5 5-1 5 1 11-11-1-3 2-1-3-3v-6l1-3 4-1 1-5 1 2 3-1 3 2 2-6h3l2 2 1 11 2 9 2 2v7l1 3 2 10 1 6 1 30 1 8 2 51v12l-2 21-3 21-3 16-4 15-5 14-2 2-4 11-6 16-3 7-7 11-4 5-1 2h-2v3l-6 5-6 9-5 6-5 5-5 9-6 7-12 11-14 11-16 11-19 11-19 9-25 9-22 6-22 4-21 2h-745l-28-3-24-5-26-8-20-8-21-10-19-12-17-13-10-9-8-7-13-13-9-11-6-8v-2l-3-1-16-24-11-20-10-24-8-26-5-24-3-23-1-21v-739h1l1 544 1 131 2 1 1 3 3 1v-8l2-13 2-5-1-5 2-3h2l-1-11 2-8 3 1 1 2 5 2 1 1v7 3l5 2-1-8-1-2h2l1-2-1-1-1-2 4-1v3l3 1 4 7-1 6-1 2h2l-1 5 1 2-1 2 3 1v2l3 1 1 5v3l3 2v3l-2 2v13l3 3 6-1v2l5-3 4-1 3-5 1-5 5-3h2v-5h2l3-3 4 3 4-2 1-4 3-3h2l2-6 2-2 3-14v-7l2-3v-3l-5 2h-4l-2-7 2-4h2l1-3 4-2v-6l4-4h2v2l5-1 7 1v2l8-5 10-4 3-1-1 4 2 1 1-3h3l5-8 5-1 4-5 4-2 1 7-2 12 1 3 3-3h2l2-9 18-53 6-16 1-4-13-2-9-4-6-4-8-9-4-7v-3l5 1 8 3 11 1h11l-3-11-10-31-7-28-5-31-3-29-1-21v-31l2-27 4-31 6-29 8-31 11-31 15-34 13-25 9-15 7-11 6-9 12-16 11-14 12-14 10-10 7-8 14-14 11-9 11-10 20-15 15-11 19-12 21-12 19-10 28-12 28-10 29-8 34-7 28-4z" fill="#0094D1"/>
<path transform="translate(433,155)" d="m0 0h737l25 2 23 4 24 7 13 5 17 7 20 11 24 16 13 10 15 14 14 14 7 8 5 6v2h2l10 15 9 14 14 27 8 20 7 22 5 23 3 20 1 11 1 542v194l-1 41-3 26-5 25-2 5-3 12-7 19-11 24-11 18-4 6-8 11-1 2h-2v3l-4 4-6 8-5 4-6 7-2-1 9-13 5-5 6-8 2-3h2l2-4h2v-3h2l2-5 7-9 3-5 3-9 5-13 4-11 2-2 7-21 3-15 2-9 4-29 1-20v-11l-2-45-1-14-1-24-3-13v-5l-1-3v-5l-2-2-2-9-1-11-3-2-3 6-7-1-1 3-4 4v6l3 4h-3v2l2 1-3 1v4l-4 2-5 5h-5v-2h-3l-2 5-7 3-8-1-1 2h-5l1 3-2 1-4 7v13l2 12v3l-9 3-3-2v2l-5 2 3 1 1 6-7 1-3 6 5 1 2 1 1-3 5-1 1 1 3-5 6-1 1 4-3 9-2 1v-2l-3-1-9 5-3-3-4 1-5 3-4-1-1 3 1 7-4 4h-2l-2 4-4 2v2l-4 1v2l-7 3-3 4h-5l-1 2h-2v-2l-2-1h3v-3l-5 1-1-2-2 4 2 1-3 1-1 2-5 5-3 7 2 5-1 4-4-2-2-2 1-6 5-8 1-4 2-1 1-3h2l2-5h2l3-9 9-15 7-8h2v-8l-12-36-9-25-16-48-15-43-7-20v-5l15-3 10-6 10-9 5-7 1-3-10 4-5 1h-15l-14-2-1-2 6-20 3-9 9-43 4-28 2-24v-60l-3-32-6-34-7-29-8-26-9-25-5-11-7-16-8-16-14-25-7-11-14-20-11-14-11-13-7-8-9-10-27-27-11-9-9-8-16-12-20-14-25-15-14-8-17-8-8-4-27-11-14-5-26-8-30-7-21-4-33-4-15-1h-43l-30 2-28 4-34 7-29 8-31 11-33 15-24 13-21 13-17 12-21 16-28 24-16 16-7 8-8 8-8 10-13 16-10 14-7 10-17 29-14 27-15 36-10 30-9 37-5 29-3 28-1 17v31l2 31 3 25 4 25 7 28 12 37 1 5-1 1h-11l-15-2-9-4 5 10 9 10 10 5 6 2 10 2-1 7-10 28-16 47-5 4-2-6 2-13-1-3-3 1-1 3h-2l-1 3-5 1-5 8h-3l-1 2-3-1v-2h2v-2l-7 4-6 2-6 4h-2v-2h-12v-2l-5 5v5l-5 3-4 7 2 6 4-2 4-1 1 4-2 3v7l-3 14-5 8h-2l-1 3h-2l-1 5h-2l-1 2-3-1v-2h-3l-2 3-2 4-7 4v6l-6 5-4 1-5 1h-5l-3-5v-13l3-1v-3l-5-2 1-4-1-4-5-4-1-4 2-5h-2v-5l1-3-4-7-2-1v-3l-3 2 2 1-1 2-2 2 1 5v4l-6-2-1-3 1-2v-5l-6-3v-2h-2l-2 10 1 6-1 2h-2l-1 6 1 4-2 5-3 19-6-1-1-10-1-140v-552l4-30 6-27 9-26 11-24 6-10 5-9 13-19 11-14 11-12 16-16 14-12 18-13 9-6 11-6 16-8 20-8 18-6 8-2 17-4 23-3z" fill="#00AFEB"/>
<path transform="translate(775,307)" d="m0 0h43l26 2 33 5 28 6 29 8 18 6 27 11 12 5 15 8 12 6 22 13 11 7 18 13 16 12 10 9 11 9 33 33 7 8 14 17 10 13 14 20 8 13 13 23 6 12 11 24 11 29 8 25 7 28 6 32 3 25 1 14v60l-3 33-5 30-7 32-4 12-5 18 14 2h15l10-3 5-1-1 5-11 12-10 7-7 3-6 1h-17l-50-7-23-3-18-2-15-1h-38l-27 2-27 4-32 7-24 7-25 10-28 13-21 12-22 15-9 7-10 8-15 14-18 18-2 3h-30l-11-11-7-8-12-11-9-8-13-10-15-11-12-8-9-5-14-8-24-11-13-5-22-8-23-6-31-6-23-3-14-1h-51l-43 4-55 8-14 1h-10l-11-2-9-4-6-4-8-9-4-7v-3l5 1 8 3 11 1h11l-3-11-10-31-7-28-5-31-3-29-1-21v-31l2-27 4-31 6-29 8-31 11-31 15-34 13-25 9-15 7-11 6-9 12-16 11-14 12-14 10-10 7-8 14-14 11-9 11-10 20-15 15-11 19-12 21-12 19-10 28-12 28-10 29-8 34-7 28-4z" fill="#FDEA90"/>
<path transform="translate(489,940)" d="m0 0h51l23 2 36 6 21 5 20 6 17 6 12 5 28 14 12 7 16 10 15 11 10 8 11 9 9 9 8 7 12 13 2 2h30l7-8 22-22 8-7 10-8 17-12 19-12 22-12 29-13 19-7 29-8 35-7 26-3 17-1h38l24 2 27 3 33 5 33 4 5 17 17 49 14 41 11 32 9 25 4 13-1 8h-2l-2 4-4 4h-21l-4-1-44-4-18-2-10-2-70-7-69-5-46-2h-78l-27 2-4 9-7 11-9 10-7 9 2 2h3l3 2h6l2 7 6 1-2 4 4 2-2 5-4 1-18 1h-14l-10 5-11 6-17 3-4 1-2 4-4 6-8 3-2 1v-5l-9 5h-3l-1-6 2-4h2l-1-5 4-3h2v-2h2l-1-3 1-4 5-1-12-3v3l-3 2-1 4-8 2h-4l-3 1 2 3 6 2v-2l5-2 1 3-6 3-1 3-6 1-2 4-4 6v5l-4 5-2 4 1 2-1 4 2 3v5l3-1 4 1-1 4-5 2 8-1 3 3-1 3h-10l-18 3-9 3-3 3 9 1 6 2h13l9 2 11 3 14 7 10 8 6 8v3h2l1 4v17l-5 10-7 6-5 5-7 2-8 3h-3v2l-9 2-26 2-22-3-12-3-3-2-12-3-8-6-8-16-4-21 1-6-5 1-3 1v2h-4l-1-4v-2h-8l-1-6-5-2-4 1v5h-2v2h-2l-1 4h-2l1 3-4 2-4 1-6 8-3 5-9 5h-4v-2h-9l-9-3-7 4-3 4-3 5-6 3-4 5-8 3-6 2h-19l-3 3-8 2-12-1h-8-2l4 7-1 4-11-11-7-8-2-4h-2l-7-8-10-11-7-8-12-13-8-10-12-13-7-8-9-10-1-3h-2l-7-8-13-15-11-12-8-7-3-3-1-2-3-1v-2h-2l-1-4-3-1-2-5h-2l-7-9 2 4h-5l-3-4v-2h-3l-1 5-7-3-1-5 5-1-6-11-1-5-4-7-1-5-4-1-8-7-3-5 2-10 17-48 28-83 13-36 1-4 29-3 48-7z" fill="#017FBA"/>
<path transform="translate(805,534)" d="m0 0h1l1 16 2 5h-2v11l8 20 13 33 5 10v69l-3 1-1 88h23l1-43 14-1v-68l8-21 7-16v-11l1-2h2v12l7 18 7 20 1 56v106h7l2 1v7h7l-4-49v-13l13-11 4-4 1-5v-41l-3-7v-12l10-42 7-26 2-1 6 27 5 18 5 22v10l-3 11v17l1 17 11 10 8 7 6 4v2l5 2 3 2-5 57-1 14 16 3v-22l1-32h51l1 1v65l17 4 3 1v-26l1-63 7 1v-8l5-1 1-27 7-13 4-30h1l1 6 1 24 6 9 3 6-1 25 5 1v7h7l1 55 5 6 2 1-1-4v-7l2-6 5-3 7 1 2 2v6l-3 2-5-1-1-3 8 1-2-4-6-1-4 4v15l4 18 3 7 4-5 7-12 9-19 3-14 1-10 1-28-5-6-1-7 4 5 2 3h2l5-9 3-3h4l-2 4-5 5h-2l-1 5-1 41 14-5 13-4 7-2v-2l9-6 3-7v-8l-1-3-7 2-5 2 2-5 2-1h8l3 3 1 3v9l-3 6h5l-3 3-16 8-18 7-10 5-8 21-11 24-5 12-3 12 10 3 31 13 17 7 3 3-9-1-26-5-30-4-28-2h-25l-29 2-29 4-27 6-25 7-22 8-25 11-16 8-10 6-7 4-12 8-13 9-15 12-8 7-10 9-5 5h-2l-2-4-9-4h-11l-9 3-2 2 1 5 5 3 4 1h15l5-2-1 3-8 7-11 13-4 6-5-5-14-17-25-25-11-9-15-12-15-10-21-13-17-9-27-12-28-10-26-7-24-5-22-3-26-2h-26l-29 1-26 3-32 6h-7l2-2 16-7 25-10 20-7 22-8 25-8 1-2v-19l-6-16-7-14-8-3-9-2-8-5-5-8-1-8 3 1 3 9 4 5 6 3 16 3 5 4 7 11 2 1 2-28 2-22v-26l-2-9-7-9-7-5-8-3h-14l-9 6-3 6 1 8 3 6 2 1h7l3-4v-5l-4-3-3-1 2 5v4l-4-2-1-5 4-4 6 1 3 3 1 6-3 5-3 3-8 1-6-4-3-6-1-10 4-8 7-6 6-2h9l9 1 10 4 6 4 6 2v-16l-1-3h2l1-7h3l1 4 2 5-2 3v12h9l-1 5-4 3-3 1-1 51-1 22 8-7 10-9 13-9 3-7 5-22-1-4-4-6-2-6v-7l4-8 4-2h9l8 4 3 7-1 7-6 8-10 4-4 19-1 14-13 12-8 7-10 13-3 6-1 5-2 33 31-8 10-3h4v-79l1-10 6-9 5-5 10-16 2-4h2v4l16-1 2-2 1 4 6-1 4 5 12 23v32h16l1-28 1-1 8-1h19v-42l1-31 3-4h2l2-4 12-16 5-6 2-20 1-22h2v35l2 10 8 11 7 10 3 4v140h4v-87l1-3 19-1h12v-48l-3-7v-53l1-13 14-33 10-24 1-4 1-13-2-1 3-1z" fill="#0075A8"/>
<path transform="translate(551,971)" d="m0 0h40l31 3 25 5 26 8 16 5 19 10 21 13 7 4-1-5 12 3 9 8 8 7 17 16 7 8 4 4h22l8 1-1 4-6 4-5 1-9 1-2-1-1 2-10 1-6 2-11 3-9 4-5 2-4 4h-2v2l-5 5h-2l-2 4h-3l-2 13-1 11-2 4-8 6-3 1-1 3-3 1-4-1-5-11-1-5-28-2-4-1-1-1v1h-12l-7-1-27-1-12 1h-18l-60 2h-6l-3 1-39 3-15 2-16 1-3-1v2l-15 2-23 2-57 4-15 3h-2-10l-9 1-8 1-5-1v-2l5-1-2-10v-3h3l-3-4h4v-2h7 4l10 1 9 1v-1l18-2 5-1h8l9-2 42-6 44-5 44-4 36-4h9l2-1 21-1 7 1 1-2h39l2 1h19l22 1 8 1 6 1h11v1l15 3 7-1 1-2-9-2-14-4-9-2-35-4-23-2-2-1h-51l-41 2-43 4-61 8-56 9-20 2h-27l-1-2 8-17 4-9 3-9 8-22 3-10 24-1 27-4 51-10 41-7 36-4 20-1h38l28 3 18 3 21 5 6 2 11 2 13 5 20 9 14 8 4 2-12-9-15-9-16-8-25-9-15-4-28-5-12-1-27-1-50 1-31 4-41 7-40 8-31 5-13 1h-10l-3-1 3-14 4-18 1-1 26-2 36-6 46-8 37-5z" fill="#0066A4"/>
<path transform="translate(1023,971)" d="m0 0h32l35 3 41 6 69 12 15 2h18l2 5 7 27v2l-2 1-25-1-27-4-59-12-47-7-36-2h-37l-29 3-25 5-26 8-10 4-11 6-15 8-15 10h-2v2l24-13 14-6 33-11 13-3 17-2 23-3 12-1h39l32 3 35 5 49 9 31 6 21 3 24 1 2 1 7 23 9 22 8 20-1 3h-32l-42-6-45-7-47-6-47-4-39-1h-43l-27 2-32 4-21 5-10 3-9 3-8-11-5-6-12-9-16-7-9-3-1-5 7-3 11-11 8-7 6-6h2v-2l9-3 22-15 19-12 24-11 9-2 20-6 25-5 24-3z" fill="#0095D2"/>
<path transform="translate(1082,940)" d="m0 0h38l24 2 27 3 33 5 33 4 5 17 17 49 14 41 11 32 9 25 4 13-1 8-2-2-3 3-3 1h-13l-10-2-6-1h-10l-12-1-3-1-20-1-19-2-18-2-7-1-29-2-31-3-7-1-39-3-36-3-19-1h-80l-18 1-3 1-9 2-2 4v2h-2l-2 6-4 8-9 10h-2l-2 4-7 4-10 6-14 5-19 2h-6l-9-3 1-3 23-5 14-6 10-6 6-7 5-7 3-8-1-11-5-15h2v-6h-2v-2l3-1 4 6 11-4 24-6 27-4 19-2 18-1h43l39 1 47 4 47 6 52 8 35 5h32l-3-10-4-8-6-16-7-19-3-11v-3l-26-1-27-4-46-9-47-8-34-4-14-1h-39l-29 3-12 2-16 2-24 7-19 7-20 9-14 8h-2v-2l19-12 15-8 11-6 17-6 25-7 24-4 22-2h37l36 2 47 7 64 13 22 3 25 1h2l-7-24-2-9h-18l-39-6-45-8-41-6-35-3h-32l-31 3-28 5-21 6-5 2-10 2-23 11-17 11-22 15-6 2h-3v2l-8 7-17 16-4 3-3 1 2-4 24-24 8-7 10-8 17-12 19-12 22-12 29-13 19-7 29-8 35-7 26-3z" fill="#00599E"/>
<path transform="translate(805,534)" d="m0 0h1l1 16 2 5h-2v11l8 20 13 33 5 10v69l-3 1-1 88h23l1-43 14-1v-68l8-21 7-16v-11l1-2h2v12l7 18 7 20 1 56v106h7l2 1v7l-32-2-31-3-1 3v-4h-34l-45 1h-18v-86l1-3 19-1h12v-48l-3-7v-53l1-13 14-33 10-24 1-4 1-13-2-1 3-1z" fill="#0295D2"/>
<path transform="translate(505,911)" d="m0 0h26l34 3 30 5 27 7 30 10 28 12 19 10 17 10 12 8 14 10 17 14 12 11 21 21 11 14 4 4 8-11 10-11h2l1-3 1-1-3 1h-15l-8-3-3-3 1-5 4-3 7-2h11l9 4 2 5 8-7 15-14 13-10 14-10 18-12 18-10 16-8 26-11 27-9 27-7 21-4 34-4 18-1h25l28 2 37 5 23 5 17 3 19 3 10 1h15l10-3 5-1-1 5-11 12-10 7-7 3-6 1h-17l-50-7-23-3-18-2-15-1h-38l-27 2-27 4-32 7-24 7-25 10-28 13-21 12-22 15-9 7-10 8-15 14-18 18-2 3h-30l-11-11-7-8-12-11-9-8-13-10-16-12v-3l-8-7-4-2v-2l-5-2-11-6-17-8-8-2-5-4-14-6-12-4h-7l-2-2-11-1v-2h-10l-2-3h-10l-5-4h-8l-3 1-2-1v-2l-21-3-22-2h-14l-21 1h-25l-12 2-2 1h-16l-44 7-8 1v2l-4 1h-15l-12-3-9-1-5-5 3-2 8-4 2-4 13-4 30-5 2-1 15-2 27-5 26-3z" fill="#FEDC5E"/>
<path transform="translate(489,940)" d="m0 0h51l23 2 36 6 21 5 20 6 17 6 12 5 28 14 12 7 16 10 15 11 5 5-9-2 1 4-2 1-19-12-17-10-13-6-13-4-19-6-21-5-18-3-24-2h-40l-34 3-37 5-46 8-36 6-26 2-5 22-3 10h13l21-2 38-7 47-9 32-5 18-2 51-1 26 1 19 2 30 6 26 9 18 8 21 13 10 8 1 2-5-2-13-8-15-7-17-7-6-2-11-2-19-5-15-3-24-3-12-1h-38l-31 2-32 4-50 9-40 8-22 3h-24l-3 12-7 20-5 13-8 18-2 5h27l27-3 49-8 61-8 43-4 41-2h51l2 1 42 4 16 2 23 6 9 3-1 3-7 1-16-3-2-1h-9l-5-1-10-1-20-1h-22l-4-1h-34l-5 1h-11l-13 1-7 1-14 1-37 4-62 6-64 9-3 1h-7l-19 3v1h-10l-10-2-6 1-8-2v2l-2 1 1 3-2 1 1 9 1 3-4 2-2-1 1 2h7l5-1 16-1 4-1 2 1 14-3 31-2 26-2 32-3h6v-2l21-1 14-2 40-3 3-1 41-1 33-1h13l10-1 25 1 7 2-2 2-31-1h-27v2h66l6 1v1h-53l-55 2-67 5-65 6-91 10-12 1h-15l-8-7-3-5 2-10 17-48 28-83 13-36 1-4 29-3 48-7z" fill="#005A9E"/>
<path transform="translate(560,1010)" d="m0 0h38l28 3 18 3 21 5 16 6v5l-12 6 2 4 2 1v3h-13l-19-1-5 3 1 1 24 4 18 4 10 3 4 2 7 2 11 3 16 6 2 4h2l-1 2-48-13-10-1h-2v2l10 1-2 2-12 2h-6-3l-1 1 7 1 26 6 8 3 5 3 1 2-17-1-26-3-23-2-2-1h-51l-41 2-43 4-61 8-56 9-20 2h-27l-1-2 8-17 4-9 3-9 8-22 3-10 24-1 27-4 51-10 41-7 36-4z" fill="#00AFEB"/>
<path transform="translate(722,631)" d="m0 0h2v35l2 10 8 11 7 10 3 4v140l-3 1-25 2-45 5-56 9-26 5h-5v-19l-1-19h-1v-39l1-10 6-9 5-5 10-16 2-4h2v4l16-1 2-2 1 4 6-1 4 5 12 23v32h16l1-28 1-1 8-1h19v-42l1-31 3-4h2l2-4 12-16 5-6 2-20z" fill="#0497D2"/>
<path transform="translate(823,1059)" d="m0 0 1 3 16 6 12 6 13 11 4 5v3h-2v2h2l1 4-2 3 5 14 1 11-4 9-8 11-6 5-16 8-13 4-15 3-1 2 11 2 16-1 10-2 12-5 9-5 8-5 5-5 8-10 3-7 2-4h2l-1-3 5-5 7-1 2 1 1-2 20-1h78l45 3 36 3 17 1 13 2 34 3 20 1 10 2 24 2 6 1 20 1 3 1 14 1h12l6 2 6 1h13l5-3 2-1-1 5-6 6h-21l-4-1-44-4-18-2-10-2-70-7-69-5-46-2h-78l-27 2-4 9-7 11-9 10-10 8-11 7-10 4-18 3h-51l-15-1-1-1-12-2-16-4-10-5-7-13-2-5h-2l-8-14-2-8-24-1-11-2-66-1v-2l17-1h21l21 1 4-2h6l3-1v2l30 2 3 3 5 12v2l7-1 5-5 7-5 1-3 1-11 1-9 2-4 4-2 1-2h2l2-4 3-1v-2l8-6 11-4 8-3 9-2 7-2 16-2 5-1 6-4z" fill="#01599E"/>
<path transform="translate(1023,971)" d="m0 0h32l35 3 41 6 69 12 15 2h18l2 5 7 27v2l-2 1-25-1-27-4-59-12-47-7-36-2h-37l-29 3-25 5-26 8-10 4-11 6-15 8-15 10h-2v2l24-13 14-6 33-11 13-3h6v1l-21 5-15 5 7 1 2 7-4 6-5 4-1 2 31-5 15-1h44l2 2-8 4h-2l-1 2-43 2-29 4-42 12-26 10-7 1-2 4-12-9-16-7-9-3-1-5 7-3 11-11 8-7 6-6h2v-2l9-3 22-15 19-12 24-11 9-2 20-6 25-5 24-3z" fill="#0094D1"/>
<path transform="translate(956,1089)" d="m0 0h27v2l7-1 15 1 1 1h11l43 4 18 1 57 6 16 2 26 3 17 2 6 2 10 1 7 2h6l5 1h9l12 2 3-1v2l15-1 2-1 3 2h3v-2l7-1h8l1 2 1-3 5 16-1 8-2-2-3 3-3 1h-13l-10-2-6-1h-10l-12-1-3-1-20-1-19-2-18-2-7-1-29-2-31-3-7-1-39-3-36-3-19-1h-80l-18 1-3 1-9 2-2 4v2h-2l-2 6-4 8-9 10h-2l-2 4-7 4-10 6-14 5-19 2h-6l-9-3 1-3 23-5 14-6 10-6 6-7 5-7 3-8-1-11-5-15h2v-6h-2v-2l3-1 4 6 11-4 11-3h4v2l9-1 8-2 7 2 20-1z" fill="#0066A5"/>
<path transform="translate(521,491)" d="m0 0h14l10 3 9 6 4 5 2 4 5 2 2-1h17l11 6 6 8 6-1h9l9 4 3 3 2 5 11 4 7 8 1 3v7l-5 6-9 2h-185l-6-3-5-4-3-6v-8l6-12 9-6 9-1 1-5 6-7 10-3h8l10 3 2-5 8-9 12-7z" fill="#FFFBDA"/>
<path transform="translate(982,415)" d="m0 0h14l11 4 9 7 7 9 2 3 8-1 5-1h7l7 3 9 9 2 5 9 2 5 3 4 6 1 4v8l-3 5-4 2h-192l-6-4-1-2v-7l6-10 3-3 10-1 2-5 5-5 7-2 11 1 5-7 10-6h15l4 2h4l6-9 9-7z" fill="#FFFBDA"/>
<path transform="translate(945,634)" d="m0 0h1l6 27 5 18 5 22v10l-3 11v17l1 17 11 10 8 7 6 4v2l5 2 3 2-5 57-1 11-1 3-12-1-11-2-5-3-1-3-8 2h-5l-1-1-10-1-2 1h-19l4-1-4-49v-13l13-11 4-4 1-5v-41l-3-7v-12l10-42 7-26z" fill="#0395D1"/>
<path transform="translate(551,971)" d="m0 0h40l31 3 25 5 26 8 10 4 1 3h-3v2l-4 2-9-1-19-4h-11l-3 1-1 3 5 2 3 3-2 4-14-2-23-2h-41l-29 2-31 4-41 7-40 8-31 5-13 1h-10l-3-1 3-14 4-18 1-1 26-2 36-6 46-8 37-5z" fill="#B7F3FD"/>
<path transform="translate(540,1011)" d="m0 0h34l-6 3-28 3-10 4-4 6 43 1v9l-15 4-18 2-30 5-2 2 18 2h10l12 1-1 3-28 3h-9v2l-79 11-30 4-9 1h-40l1-6 6-15 6-19 24-1 27-4 51-10 41-7z" fill="#B8F3FD"/>
<path transform="translate(1113,915)" d="m0 0h11l19 2h22l14 1 23 5 17 3 19 3 10 1h15l10-3 5-1-1 5-11 12-10 7-7 3-6 1h-17l-50-7-11-2-1-2-10-1-4-2-12-2h-7l-9 1-12-2h-17l-16 1h-13l-9 1-22 1-20 4-10 3-12 3-3 1-16 4-12 4-11 5-16 7-16 8-7 3-7 2-11 7-3 1v3l-10 4-4 1-3-3 2-4 8-7 15-11 4-3 11-6 18-10 16-7 12-6 13-5 20-6 14-5 7-2 5-2h7l7-2v-2l11 1 12-2 24-1 10-1z" fill="#FFCF49"/>
<path transform="translate(1046,1011)" d="m0 0h19l40 5 47 8 46 9 21 3 24 1 2 1 7 23 5 13-1 3-12 1h-12l-34-3-55-8-38-5-8-1-1-1-9-1-1-3 10-1h10l1-2h7l-1-2-12-3-37-6-11-1-1-4 3-1 1-7 1-1h29v-2l-6-1-2-4-5-2-3-2-12-1-10-3z" fill="#B8F3FD"/>
<path transform="translate(738,1280)" d="m0 0h26l15 3 14 5 12 7 6 5 3 4 1 4v10l-2 9-5 8-8 7-13 6-16 4-5 1h-27l-16-3-16-6-10-7v-2l-3-1-4-8-1-4v-15l3-6 4-5 10-7 15-6z" fill="#FECF49"/>
<path transform="translate(507,915)" d="m0 0h34l12 2h22l-1 2 8 2v-2l10 1-1 2 6 2 7 1 3 2 7 2 9 3 16 5 13 6 10 2 8 5 13 6 11 6 14 9 15 9 8 6 7 6v2l3 1 4 4 5 3 2 3v5l-3 1-9-4-7-1-7-3-2-4-5-6-7-4v-2l-5-2-11-6-17-8-8-2-5-4-14-6-12-4h-7l-2-2-11-1v-2h-10l-2-3h-10l-5-4h-8l-3 1-2-1v-2l-21-3-22-2h-14l-21 1h-25l-12 2-2 1h-16l-44 7-8 1v2l-4 1h-15l-12-3-9-1-5-5 3-2 8-4 2-4 13-4 26-4h7l10-2h5l3 1h7l5-2 15-1 6-2 33-2z" fill="#FFCF49"/>
<path transform="translate(683,991)" d="m0 0 6 1 19 10 21 13 19 14 12 11 8 7 14 14-1 3-20 8-14 10-6 7-5 9-9-1-23-7-6-1 4-2-5-3-11-4-23-5-7-2 1-2 3-1v2l7-1 11-2-8-2v-2l7-1 24 6 29 8-1-1v-2l-3-1-9-4-13-4-5-2-9-2-9-4-12-2-24-5-10-2 4-4 2-1 19 1 13 1v-3l-4-2v-4l7-4 4-1 1-5-7-2v-1l8 1 13 5 20 9 14 8 4 2-12-9-15-9-16-8-25-9-15-4-28-5-12-1-27-1h-38v-1l17-1h41l23 2 14 2 2-3-5-2-3-3 1-4 3-1h11l22 5h6l4-1v-2h3z" fill="#0094D1"/>
<path transform="translate(1101,707)" d="m0 0h1l1 6 1 24 6 9 3 6-1 25 5 1v7h7l1 57h-2l1 3v44l-6-1-29-9-10-3-3-2v-26l1-63 7 1v-8l5-1 1-27 7-13 2-15z" fill="#0194D1"/>
<path transform="translate(859,1210)" d="m0 0h22l14 3 10 4 9 5 8 8 2 4v10l-3 10-7 8-12 6-13 4-13 2h-13l-19-3-12-5-10-6-6-8-2-9v-7l3-7 4-5 9-6 8-4 11-3z" fill="#FECF4A"/>
<path transform="translate(606,742)" d="m0 0h2v4l16-1 2-2 1 4 6-1 4 5 12 23v32h14v1l-42 2-1 35-1 13-30 6h-5v-19l-1-19h-1v-39l1-10 6-9 5-5 10-16z" fill="#63C7E5"/>
<path transform="translate(1037,972)" d="m0 0h33l35 4 50 8 45 8 15 2h18l2 5 7 27v2l-2 1-25-1-27-4-59-12-47-7-11-1-10-2-8-1-1-2 13-1 1-4 29-1 9-1-13-3-21-4v-5l-5-2-11-2-17-3z" fill="#B7F3FD"/>
<path transform="translate(1012,1010)" d="m0 0h39l-3 2 10 3 12 1 8 5 2 3 6 2v2l-29 1-2 7-2 1v3l24 3 30 5 7 3v2l-7 1-1 1-16 1h-4l1 2 9 1v1h-11l-34-3-20-1h-50l-1-1-15-1 4-2 7-2 34-2 10-5-1-1h-44l-21 2-20 3h-5l2-4 5-4 2-5-1-5-8-1 1-2 18-6 29-6 23-3z" fill="#63C7E5"/>
<path transform="translate(1097,578)" d="m0 0h8l10 3 8 7 2 7 7-1h11l10 5 6 10 8 1 4 5 2 5v8l-2 2-5 1h-128l-5-4-1-2v-9l3-7 5-3 8-2 4-6 4-3 9-3 4 1h7l6-8 8-5z" fill="#FFFBDA"/>
<path transform="translate(560,1010)" d="m0 0h38l28 3 18 3 21 5 16 6v5l-12 6 2 4 2 1v3h-7l-25-3-18-1h-27v4l17 2 7 2 13 1 5 3-2 3h-13l-21-1h-18l-47 2-21 2h-10v-1l28-3h9v-2l-16-1-15-1-10-2 4-3 37-6 16-2 10-2-1-7 1-2h-43l-2-2 5-5 7-4 13-2 19-2 2-1-10-1z" fill="#63C7E5"/>
<path transform="translate(1022,1066)" d="m0 0h29l36 2 35 4 41 6 39 6 9 2 18 1h33l7 16-1 3h-32l-42-6-45-7-47-6-47-4-34-2-61-1-1-2 3-2 1-3 7-2 38-4z" fill="#B4F1FC"/>
<path transform="translate(534,717)" d="m0 0 2 1 1 4 2 5-2 3v12h9l-1 5-4 3-3 1-1 51-1 22 8-7 10-9 13-9 3-7 5-22-1-4-4-6-2-6v-7l4-8 4-2h9l8 4 3 7-1 7-6 8-10 4-4 19-1 14-13 12-8 7-10 13-3 6-1 5-2 35 2 6-2 3-8 1-4-2-2-6-1-2v-19l-6-16-7-14-8-3-9-2-8-5-5-8-1-8 3 1 3 9 4 5 6 3 16 3 5 4 7 11 2 1 2-28 2-22v-26l-2-9-7-9-7-5-8-3h-14l-9 6-3 6 1 8 3 6 2 1h7l3-4v-5l-4-3-3-1 2 5v4l-4-2-1-5 4-4 6 1 3 3 1 6-3 5-3 3-8 1-6-4-3-6-1-10 4-8 7-6 6-2h9l9 1 10 4 6 4 6 2v-16l-1-3h2l1-7z" fill="#0481BC"/>
<path transform="translate(518,1068)" d="m0 0h36l1 2-9 3-11 3-2 2h27l3 2h-3v2l-40 3-44 5-50 7-43 7-20 2h-27l-1-2 8-17h40l11-2 54-8 42-6z" fill="#B4F1FC"/>
<path transform="translate(1023,971)" d="m0 0h32v1l-11 1 21 4 6 3-1 5 21 3 14 3-1 2-9 1h-29v5l-13 1 16 2v1h-9l-11-1h-44l-26 3-7-1 1-4 5-5v-4l-16 2-24 5-5 1-5-5 2-4 22-8 27-6 30-4z" fill="#63C7E5"/>
<path transform="translate(551,971)" d="m0 0h40l31 3 25 5 26 8 10 4 1 3h-3v2l-4 2-9-1-19-4h-11l-3 1-1 3 5 2 3 3-2 4-14-2-23-2h-55v-1l22-2 3-1-24-1-2-2-4-1-43-1-1-2 13-3 35-4h3l2-4 8-5 26-1 2-1-37-1z" fill="#63C7E5"/>
<path transform="translate(1e3 803)" d="m0 0h51l1 1v65l-21-3-6-3-9-1-10-3-8-1z" fill="#0798D3"/>
<path transform="translate(753,1126)" d="m0 0h18l13 2 14 6 7 8 1 8-5 10-9 6-6 3-12 3h-18l-17-4-9-5-6-7-1-2v-10l6-9 14-7z" fill="#FED04B"/>
<path transform="translate(596,751)" d="m0 0 4 2-5 9-4 5-5 5-2 4-1 10v52l-1 27-41 11h-4v-18l1-15 3-9 10-14 8-8 8-7 6-5 1-14 4-19 12-6 4-6z" fill="#FCEA96"/>
<path transform="translate(585,1056)" d="m0 0 32 1 24 2-3 2h-6l-1 3-3 1 1 1 14 2h3l3 1v2h-14l-30-3-17-1h-32l-38 2-43 5-53 8-36 5-3 1h-36l-3-1 1-5 3-5 40-1 33-4 77-11 39-4z" fill="#0096D3"/>
<path transform="translate(583 1e3)" d="m0 0 27 1 19 2 30 6 26 9 18 8 21 13 10 8 1 2-5-2-13-8-15-7-17-7-6-2-11-2-19-5-15-3-24-3-12-1h-38l-31 2-32 4-50 9-40 8-22 3h-24l2-4 6-3 8-2 21-2 38-7 47-9 32-5 18-2z" fill="#005FA3"/>
<path transform="translate(1009 1e3)" d="m0 0h37l36 2 47 7 64 13 22 3 15 1v1h-6v2l-6 1-2 4-11-1-28-5-42-8-36-6-34-4-14-1h-39l-29 3-12 2-16 2-24 7-19 7-20 9-14 8h-2v-2l19-12 15-8 11-6 17-6 25-7 24-4z" fill="#005CA0"/>
<path transform="translate(641,1044)" d="m0 0 19 1 25 5 15 4 12 3 23 9 15 3 1-5h-2l1-2 11 8v2l-14 10-6 7-5 9-9-1-23-7-6-1 4-2-5-3-11-4-23-5-7-2 1-2 3-1v2l7-1 11-2-8-2v-2l7-1 24 6 29 8-1-1v-2l-3-1-9-4-13-4-5-2-9-2-9-4-12-2-24-5-10-2 4-4z" fill="#0094D1"/>
<path transform="translate(306,1142)" d="m0 0 4 1 4 4 6 4 2 2 5 4 3 5h-2l6 10 2 4-5 1v4l6 3 1-5 4 1 3 4v2l4-1-3-3h3l6 7v2h2l3 5 3 3v2h2l9 9 11 12 1 7 4 2 1 6-10-4v2l-7 1v-3l-6-1-6-3-8-5v-2l-6-2-6-4-2-4v-4l-3-1v-2h-2l-6-12v-2l-3-1 1-5-4-1-5-3-7-4-7-12-1-10 4-2z" fill="#00AFEB"/>
<path transform="translate(1082,940)" d="m0 0h38l24 2 27 3 33 5 33 4-1 2h-15l-7-1-5 1 3 1h18l6 2 1 2-1 10-11-5-24-3-4-1-41-2-8-2-21-2-12-3-23-2-2-2 1-1 7-1 30-1-1-1-6-1-25-1-20 1-13 2h-9l-25 4-10 2-12 2-16 4-7 2-8 3-24 8h-5l4-3 24-9 29-8 35-7 26-3z" fill="#0156AC"/>
<path transform="translate(329,925)" d="m0 0 5 1 8 3 11 1h17v1l-7 1-1 4-7 4-4 2 4 4 12 2 9 2h19v-2l16-3 36-6h16l8-2 7-1h32l13-1h18l34 4 5 2v2l5-1h8l5 4h10l3 3h7l4 2 9 1 2 2h7l20 7 8 5 5 3 8 2 21 10 8 5 2 1v2l5 2 8 7-2 3-10-7-9-5-14-8-24-11-13-5-22-8-23-6-31-6-23-3-14-1h-51l-43 4-55 8-14 1h-10l-11-2-9-4-6-4-8-9-4-7z" fill="#FBDC65"/>
<path transform="translate(1096,906)" d="m0 0 22 1 8 2 21 2-2 2h-14l-17-1h-25l-29 2-29 4-27 6-25 7-22 8-25 11-16 8-10 6-7 4-12 8-13 9-15 12-8 7-10 9-5 5h-2l-2-4-4-4 10-4h2v-2l5-4h2l2-4 4-1v-2l12-9 10-8 13-9 11-7 17-10 16-7 2-2 10-4 11-5 18-6 10-4 24-6 18-3 20-3 11-1 3-1z" fill="#0268A5"/>
<path transform="translate(489,940)" d="m0 0h51l23 2 36 6 14 3-3 2-9-1-37-6-18-2-14-1h-32l-14 1-11 1-19 2-7 2-10 1-4-1v2l16 1 7-4h8l4 2-1 3-16 3-7 1-8 1h-13l-9 4-24 7-9 4h-3l-3 6h-1l-1-12 1-2-3-1 2-2-3-2-1 8-2-1-1 5-3 6v3h-2l-1 3-2-4 8-22 1-4 29-3 48-7z" fill="#0256AC"/>
<path transform="translate(674,1024)" d="m0 0 8 1 13 5 20 9 14 8 4 3v2h3v2h3v2h3v2h3v2l4 2v2h2l-1 5h-7l-16-5-15-6-15-4-7-1v-2l-9-1-14-3v-1h6v-3l-4-2v-4l7-4 4-1 1-5-7-2z" fill="#00AEEA"/>
<path transform="translate(871,1202)" d="m0 0h8l2 1 13 1 10 3 3 3 9 6 5 8 4 7 1 4v10l-1 6-3 1 1-8v-10l-4-6-8-7-10-5-13-4-7-1h-22l-13 2-13 4-9 6-5 5-3 4-1 4v7l3 11 5 6 15 8 16 4 9 1h13l13-1-1 2-9 2h-17l-15-1-13-5-7-3-11-5-3-4-1-9-1-2-1-11-3-4-1-8 7-9 14-7 12-4 9-1z" fill="#027EB8"/>
<path transform="translate(1033,1120)" d="m0 0 20 2 37 1h17l13 2 34 3 20 1 10 2 24 2 6 1 20 1 3 1 14 1h12l6 2 6 1h13l5-3 2-1-1 5-6 6h-21l-4-1-44-4-18-2-10-2-70-7-69-5v-1l-22-2z" fill="#005CA0"/>
<path transform="translate(1074,969)" d="m0 0h13v3l4-1 18 1 7 2 14 1-4-3h-9l-3-1v-2h8l11 2 16 1 14 4 1 1 13 1 6 2 11 2h15l11 3v4l-2 1h9l3-1 6 2 3 5 4 15 2 8h-2l2 4-1 4-3-1-7-27-1-4h-18l-39-6-45-8-41-6-35-3v-1l5-1z" fill="#0159AD"/>
<path transform="translate(337,816)" d="m0 0 2 4 5 34 6 26 7 24 7 21 1 5-1 1h-11l-15-2-9-4 5 10 9 10 10 5 6 2 10 2-1 7-1-4-5 2-1 3-5-2h-3l-2-1-1-2-9-3-9-5-6-8-1-6 1 2h2l-1-12 1-3 9-3 4 2h11l-6-3v-8l1-6-2-16-1-3-4-18-2-8-1-15-2-3v-15z" fill="#0698D3"/>
<path transform="translate(556,1066)" d="m0 0h32l39 3 27 4 5 2-1 4-5 2h-93v-2h-27l-1-2 9-4 10-2 3-2-20-1v-1z" fill="#63C7E5"/>
<path transform="translate(933,844)" d="m0 0 10 1 1 1 13-1 3 4 6 2 26 4 21 4 7 2 12 2 3 2 16 2 4 2 1 4-2 4h-8l-1-1h-12l-20-3-12-4-2-3h-6l-5-1-11-2-1-4-9-2h-10l-6 1h-9l-14-2-9-4-1-6 13-1z" fill="#007EBA"/>
<path transform="translate(683,991)" d="m0 0 6 1 19 10 16 10 3 5v2l-9-1-16-7-15-6h-7l-2 7 2 1v2l-5 1-12-4-13-2-28-5-12-1-27-1h-38v-1l17-1h41l23 2 14 2 2-3-5-2-3-3 1-4 3-1h11l22 5h6l4-1v-2h3z" fill="#00ABE7"/>
<path transform="translate(1022,1066)" d="m0 0h29l20 1v1h-14l1 4 15 1 5 4v2l-31 1 8 1v1h-16l-18-1-61-1-1-2 3-2 1-3 7-2 38-4z" fill="#63C7E5"/>
<path transform="translate(1074 1e3)" d="m0 0h8l47 7 64 13 22 3 15 1v1h-6v2l-6 1-2 4-11-1-28-5-42-8-36-6-34-4v-1l7-2 2-2-4-2z" fill="#015CAD"/>
<path transform="translate(931,988)" d="m0 0 4 1-5 2-1 3 1 3 5 1 21-5 20-3 3 1-1 5-3 4h-2l1 4 11-1 20-2h44l22 2v1h-12l-13-1h-37l-29 3-25 5-11 3-14 3-9 3-3-1 6-3h2l1-3 2-1 1-3 7-4h3l1-4-3-1-17 5-25 10-6 3h-2l1-6 6-4 4-4 14-8z" fill="#00AAE6"/>
<path transform="translate(928,1123)" d="m0 0h78l46 2 29 2-2 2-15-1h-12l-5-1-23-1h-16l-3 2-8 1-9 1-2 3-8 1h-18l-26 2-8 2v9l-2 2-9 1-4 2-1-5-6-9 2-4 4-3h21l3-2-9-3-14-1v-1z" fill="#017FBB"/>
<path transform="translate(534,717)" d="m0 0 2 1 1 4 2 5-2 3v12h9l-1 5-4 3-3 1-1 51-1 13h-1l-1-8-2-3-1 8v10l-1 2h-2l-1 2 1-36v-26l-2-9-7-9-7-5-8-3h-14l-9 6-3 6 1 8 3 6 2 1h7l3-4v-5l-4-3-3-1 2 5v4l-4-2-1-5 4-4 6 1 3 3 1 6-3 5-3 3-8 1-6-4-3-6-1-10 4-8 7-6 6-2h9l9 1 10 4 6 4 6 2v-16l-1-3h2l1-7z" fill="#0176AB"/>
<path transform="translate(529,908)" d="m0 0h9l10 1 20 1 12 2 23 3 12 3 10 4 14 4 13 5 20 9 17 7 2 1v2l4 1 5 2v2l4 1 12 7 10 6v2l5 2 4 2v2l5 2 11 10 2 1v2l5 2 12 11 4 6-3 1-8-8-11-9-15-12-15-10-21-13-17-9-27-12-28-10-26-7-24-5-22-3-38-3-4-2z" fill="#026AA6"/>
<path transform="translate(960,1016)" d="m0 0h6v1l-21 5-15 5 7 1 2 7-4 6-5 4-1 2 4 1-23 5-20 6-9 1-8 3h-4l-1-4 1-3 6-4 1-2 16-8 9-5h2v-2l11-5 33-11z" fill="#00AEEA"/>
<path transform="translate(1254,696)" d="m0 0h1l2 16 2 11 1 21 1 2v67l-2 11-1 18-2 10-2 15-2 10-2 6-2 12-1 1-2 11-3 15h22l8-2 4 1 2 5-10 4-5 1h-15l-14-2-1-2 6-20 3-9 9-43 4-28 2-24v-60l-3-32-1-14z" fill="#0C9BD4"/>
<path transform="translate(929,1116)" d="m0 0h80l45 3 35 3 1 2-37-1-20-2-2 1 32 2v1h-31l-26-1h-107-3l5-5 7-1 2 1 1-2z" fill="#005A9E"/>
<path transform="translate(755,1118)" d="m0 0h21l15 2 9 6 1 3-1 2h2l5 8 2 10 1 2-1 7-3 3-3 2 1 2-14 4-7 3h-3v2l15 1 1 2-15 1-15-1-1-1-12-2-16-4-10-5-7-13v-3l2 1 1-4 2 10 6 7 11 5 14 3h18l14-4 9-5 5-5 3-7-1-8-6-7-14-6-13-2h-18l-13 3-3 1-1-2 2-7 8-3z" fill="#0258AC"/>
<path transform="translate(329,925)" d="m0 0 5 1 8 3 11 1h17v1l-7 1-1 4-7 4-4 2 4 4 12 2 9 2h19v-2l16-3 36-6h16l8-2 7-1h28l4 2-31 3-14 2-27 3-47 7-14 1h-10l-11-2-9-4-6-4-8-9-4-7z" fill="#FDDD66"/>
<path transform="translate(576,737)" d="m0 0h9l8 4 3 7-1 7-6 8-10 4-4 19-1 14-13 12-8 7-5 6h-2l-1-4-3-1 6-7 13-10 6-4 3-7 5-22-1-4-4-6-2-6v-7l4-8z" fill="#076FAB"/>
<path transform="translate(942,972)" d="m0 0h3l-1 3h-2v2l-5 5-1 2 1 2 5-2 4 1-8 3-10 2-23 11-17 11-22 15-6 2h-3v2l-8 7-17 16-4 3-3 1 2-4 24-24 8-7 10-8 17-12 19-12 22-12z" fill="#025DA0"/>
<path transform="translate(1176,769)" d="m0 0h4l-2 4-5 5h-2l-1 5-1 41 14-5 13-4 7-2v-2l9-6 3-7v-8l-1-3-7 2-5 2 2-5 2-1h8l3 3 1 3v9l-3 6h5l-3 3-16 8-18 7-10 5-8 21-11 24-5 12-1 3-4-2 4-11 5-10 2-5-6 6h-2l2-5 9-17 5-14 2-17 1-28-5-6-1-7 4 5 2 3h2l5-9z" fill="#026CA8"/>
<path transform="translate(859,752)" d="m0 0 8 1 3 3 5-3h6v7h-8v3h7l3 2v5l-1 1h-9v3h10l-1 7h-8v3h6l1 3-1 2-6 1v3h6l1 4-7 3v2l7 2-1 4h-8l-1-5 1-4h-6l-1 1h-5l-1-1v-5l6-2-6-2-1-4 1-3h7l1-3h-7l-1-1v-5h9v-3h-9v-7l8-1v-3h-7l-1-1z" fill="#15B4EA"/>
<path transform="translate(820,1083)" d="m0 0h10l3 1 9-1 2 7 9 2-3-3h3l8 6 2 4-1 4h-9l2 8 2 4-1 8-4 2-4-4 1-4-2-3v-3h-5l-4-5v-1l-7-2-7-6-7-4-5-2-2 1 2-4 5-4z" fill="#0155AC"/>
<path transform="translate(967,1050)" d="m0 0h9l-4 2-3 1 11 1 1 1h50v1l-43 2-30 3-27 4-25 5-20 5-17 7-1 1h-6l1-5 15-5 21-8 39-11z" fill="#00AFEB"/>
<path transform="translate(1275,926)" d="m0 0h3l-1 5-11 12-10 7-7 3-6 1h-17l-50-7v-1l12-1 7 1 13 1 5 1h14l13-1 7-3 3-1-1-4-11-3-8-4-2-2-4-2 14 1 10 1h15l10-3z" fill="#FDDD64"/>
<path transform="translate(509,1085)" d="m0 0h7l1 2-4 1v2l-19 2-8 2-17 1-6 2-19 1-9 2-12 1-7 2-12 2-19 4-7 1h-38l-7-3 1-2h29l27-3 49-8 61-8z" fill="#015AAD"/>
<path transform="translate(518,881)" d="m0 0h4l-2 5-7 3-8 2-12 4-11 3-13 6-3 1 1 3h20l13 1-4 2-20 2-26 3-32 6h-7l2-2 16-7 25-10 20-7 22-8z" fill="#036AA6"/>
<path transform="translate(1138,367)" d="m0 0 3 3 3 11 4 5 7 4 7 3v2l-13 7-6 7-3 13h-2l-4-15-4-6-8-4-7-1v-4l11-4 5-3 4-6z" fill="#FDEC9B"/>
<path transform="translate(618 1e3)" d="m0 0h11l30 6 26 9 18 8 21 13 10 8 1 2-5-2-13-8-15-7-17-7-6-2-11-2-19-5-15-3-14-2-3-3 4-2z" fill="#015CAF"/>
<path transform="translate(817,976)" d="m0 0h11l11 4 4 5-1 5-5 4-9 3h-12l-9-3-5-5v-5l7-6z" fill="#FEDC60"/>
<path transform="translate(505,911)" d="m0 0h26l34 3 7 1 1 2-5 1h-18l-9-2h-34l-29 2-18 1-6 2-15 1-7 2h-12l-1-1-13 2 2-3 15-2 27-5 26-3z" fill="#FCDB5E"/>
<path transform="translate(933,844)" d="m0 0 10 1 1 1 13-1 3 4 6 2 26 4v1h-5l3 6 10 2-1 2h-6l-5-1-11-2-1-4-9-2h-10l-6 1h-9l-14-2-9-4-1-6 13-1z" fill="#017FBB"/>
<path transform="translate(823,945)" d="m0 0h13l11 3 4 5-1 6-6 5-4 1h-20l-6-4-3-3v-5l7-6z" fill="#FEDC5E"/>
<path transform="translate(859,1210)" d="m0 0h22l14 3 6 2v1l-10 2-7-2-5-1h-10l-13 1-16 4-8 5h-2v2l-3 3h-2v7l2 7-1 4-5 3h-2l2 7-4-4-3-11v-7l3-7 4-5 9-6 8-4 11-3z" fill="#FDDD63"/>
<path transform="translate(899,1123)" d="m0 0 12 1v1l-10 1-4 9-7 11-9 10-10 8-11 7-10 4-18 3h-17v-1l9-1h-24l1-3 6-2 3-3 12 3 16-1 10-2 12-5 9-5 8-5 5-5 8-10 3-7 2-4h2z" fill="#01599E"/>
<path transform="translate(201,1291)" d="m0 0 5 2 9 15 14 21 7 10 7 9 4 1 4 5 2 4 3 3v2l4 2 7 8 5 5 2 5-5-1-16-15-10-10-9-11-6-8v-2l-3-1-16-24-9-16z" fill="#00AAE6"/>
<path transform="translate(531,969)" d="m0 0 16 1 4 2-34 3-37 5-46 8-36 6-14 1-2-2 2-1 13-1 7-3 11-1 10-3h12v-2l8-2h6l10-3 14-2 8-1h9l8-2h13z" fill="#015BAE"/>
<path transform="translate(969,1070)" d="m0 0h9v1l-15 2-1 4-2 2 61 1 18 1v1h-66l-27 2-32 4-5 1h-11l4-3 10-3 10-4 21-5z" fill="#00A7E3"/>
<path transform="translate(1089,911)" d="m0 0h25l28 2 30 4v1h-29l-19-2-36 1-13 1-21 1-13 2-7-1-3-2 6-2 34-4z" fill="#FEDB5B"/>
<path transform="translate(738,1280)" d="m0 0h26l15 3 9 3-4 2-11-1-14-3-11-1-13 2-5 2-8 1-12 6h-2v2l-11 7-2 5-3 14 3 9 2 4-3-1-4-8-1-4v-15l3-6 4-5 10-7 15-6z" fill="#FEDE68"/>
<path transform="translate(815,915)" d="m0 0h8l10 3 4 5-2 5-5 4-10 2-16-3-4-4v-5l5-4 4-2z" fill="#FDDC61"/>
<path transform="translate(1138,827)" d="m0 0 7 1 2 2v6l-3 2-5-1-1-3 8 1-2-4-6-1-4 4v15l4 18 3 7 4-5 1-2 5-3 3-4 2 1-2 5-6 13-3 8 3 3-3 7-5-1-3-1-3-22-5-23-6-5v-3l4 1 5 4-1-4v-7l2-6z" fill="#0280BB"/>
<path transform="translate(1158,1094)" d="m0 0 12 1 57 9 9 1h33l2 3h-2v2h-53l-19-4-5-2-22-5-7-1-9-2z" fill="#015AAC"/>
<path transform="translate(1045,1082)" d="m0 0h10l47 4 47 6 6 1-2 2-3 1h-22l-13-2-7-2-6-1-18-1-5-2-14-1h-18l-16-3v-1z" fill="#015BAE"/>
<path transform="translate(510,936)" d="m0 0m-33 0h29l4 2-31 3-14 2-27 3-40 6h-7l1-2h3v-2l16-3 36-6h16l8-2z" fill="#FCDE69"/>
<path transform="translate(787,889)" d="m0 0h16l8 4 1 1v5l-5 4-8 2h-9l-9-3-3-3 1-5 5-4z" fill="#FEDB5A"/>
<path transform="translate(931,988)" d="m0 0 4 1-5 2-1 3 1 3 4 2-1 2-22 8-15 6-6 3h-2l1-6 6-4 4-4 14-8z" fill="#00ACE8"/>
<path transform="translate(491,733)" d="m0 0h9l9 1 10 4 6 4 1 2h-2l1 5 3 6h-2l-7-9-7-5-8-3h-14l-9 6-3 6 1 8 3 6 2 1h7l3-4v-5l-4-3-3-1 2 5v4l-4-2-1-5 4-4 6 1 3 3 1 6-3 5-3 3-8 1-6-4-3-6-1-10 4-8 7-6z" fill="#0A6CB2"/>
<path transform="translate(1124,846)" d="m0 0 4 2 3 5 5 26v14l-9-2-3-2z" fill="#FCEA93"/>
<path transform="translate(577,740)" d="m0 0h10l5 5 1 7-4 8-7 4h-5l-5-6-1-2v-10l5-5z" fill="#FBEB9D"/>
<path transform="translate(1262,1028)" d="m0 0 1 2 2 1 3 5 4 11v2h2l4 12 1 7 2 6 1 5 2 9 3 10h2l4 9 3 5v3l2 1 3 8-1 9-3 6-1-3-1-8-11-33-9-25-13-39z" fill="#0092CF"/>
<path transform="translate(753,1126)" d="m0 0h18l13 2 7 3v1l-10 1-5-3-1-1h-15l-21 8-6 4h-2l1 12-4 8-4-5-1-2v-10l6-9 14-7z" fill="#FADE6B"/>
<path transform="translate(328,929)" d="m0 0 4 2 6 9 7 6 8 4 6 2 10 2-1 7-1-4-5 2-1 3-5-2h-3l-2-1-1-2-9-3-9-5-6-8-1-6 1 2h2z" fill="#0396D2"/>
<path transform="translate(942,972)" d="m0 0h3l-1 3h-2v2l-5 5-1 2 1 2 5-2 4 1-8 3-10 2-13 6h-2l1-5-4 1-5 2-4 4h-2v2l-6 3-2 5h-8v-3l17-11 16-9 16-8z" fill="#0159AB"/>
<path transform="translate(1065,941)" d="m0 0h12l-1 3-13 2h-9l-25 4-10 2-12 2-16 4-7 2-8 3-24 8h-5l4-3 24-9 29-8 35-7z" fill="#065FAE"/>
<path transform="translate(523,935)" d="m0 0h18l34 4 5 2v2l4 2-14-1-16-2-14-1h-61v-1l31-3 1-1z" fill="#F9E077"/>
<path transform="translate(744,749)" d="m0 0 3 3 2-1-1 90h-4z" fill="#FDFADA"/>
<path transform="translate(657,1073)" d="m0 0 6 1 26 6 8 3 5 3 1 2-17-1-26-3-23-2v-1l16-1 5-2z" fill="#00AAE6"/>
<path transform="translate(535,757)" d="m0 0h2v45l-1 13h-1l-1-8-2-3-1 8v10l-1 2h-2l-1 2 1-36 1-11h2l2-9h2z" fill="#0174A8"/>
<path transform="translate(700,958)" d="m0 0h4v2l6-1 7 5 9 5v2l5 2 4 2v2l5 2 11 10 2 1v2l5 2 12 11 4 6-3 1-8-8-11-9-15-12-15-10-22-14z" fill="#0367A5"/>
<path transform="translate(591,766)" d="m0 0h2v4h2v2l6 1 5 3 2 4-1 9-4 5-2 1h-8l-3-3v-9l5-2 4 1 1 2v6h3v-10l-3-3-8-1-4 2-3 9-1 7h-1v-18l6-9z" fill="#028CC6"/>
<path transform="translate(850,1174)" d="m0 0h11l1 2-2 3-5 2h-7l-2 1-19 3-11 2h-14l-4-1v-2h10l4-2 2-3 18-2z" fill="#0093D0"/>
<path transform="translate(312,1077)" d="m0 0 4 2-1 8-2 7-2 9 5-1-1 8-2 5-5 3-4-1-2 3-1-4-2-1 3-7 1-5h2l-1-4-1-2 5-6z" fill="#00AFEB"/>
<path transform="translate(1158,903)" d="m0 0 5 1 31 13 11 5 2 2-9-1-26-5-21-3-1-3 2-1 11 1 5-1-4-4-6-3z" fill="#0067A4"/>
<path transform="translate(975,1041)" d="m0 0h44l2 2-8 4h-2l-1 2-16 1h-18v-1l8-2-4-2v-2l-5-1z" fill="#00AFEB"/>
<path transform="translate(489,940)" d="m0 0h51l23 2 36 6 14 3-3 2-9-1-37-6-18-2-14-1h-29l-3-1-11-1z" fill="#025CAB"/>
<path transform="translate(811,838)" d="m0 0 20 1-1 5 1 2h7l-1 3 3-1v2h-5l1 3-6 2-5 4-5-1-2-3 2-8h2l-2-4-10-2h-16l-3-2z" fill="#027FBB"/>
<path transform="translate(1074 1e3)" d="m0 0h8l21 3v2h5l-1 5-6 1h-10l-26-3v-1l7-2 2-2-4-2z" fill="#015EAE"/>
<path transform="translate(774,869)" d="m0 0 16 1 5 2-1 6-4 3h-18l-3-1-1-7z" fill="#FCDE6C"/>
<path transform="translate(722,1146)" d="m0 0h1l2 10 6 7 11 5 14 3h18l9-1v2h-3v2l15 1 1 2-15 1-15-1-1-1-12-2-16-4-10-5-7-13v-3l2 1z" fill="#0258AA"/>
<path transform="translate(797,1291)" d="m0 0 5 2 9 7 3 4 1 4v10l-2 9-5 8-8 7-6 3-2-1 8-6h2l2-5 3-3 2-10v-9l-2-6-3-3v-2h-2l-2-5-4-2z" fill="#FEDD64"/>
<path transform="translate(442,908)" d="m0 0h6v2l11 1 1 2-14 4-28 5h-7l2-2 16-7z" fill="#0260A2"/>
<path transform="translate(478,803)" d="m0 0 3 1 3 9 4 5 6 3 16 3 5 4 7 11-1 7 2 11-3-4-10-23-5-3-13-3-8-5-5-8z" fill="#0374AA"/>
<path transform="translate(1138,827)" d="m0 0 7 1 2 2v6l-3 2-5-1-1-3 8 1-2-4-6-1-4 4v15l4 18 1 7-1 7-2 3-6-31-3-5-4-3v-3l4 1 5 4-1-4v-7l2-6z" fill="#0078AC"/>
<path transform="translate(606,742)" d="m0 0h2v4l16-1 2-2 1 4 6-1 4 5 11 21v11h-1l-3-13-7-9-3-5v-4h-2l-1-2h-25l-9 9 2-5z" fill="#129DD4"/>
<path transform="translate(830,1022)" d="m0 0v3l-8 7-11 13-4 6-5-5-7-9 2-2 4 6 2 1 7-2 4-8 1-5-7-1v-1l18-1z" fill="#036CA7"/>
<path transform="translate(683,1020)" d="m0 0 9 3 16 8 19 12 8 7h-3l-15-9-15-7-17-7-3-2 2-2z" fill="#01599F"/>
<path transform="translate(735,1014)" d="m0 0 12 3 9 8 8 7 11 10-3 1-9-9-7-3v-2l-3-1v-2l-4-2-4-1 5 6 11 9 4 4-1 2-15-13-13-10z" fill="#0266A5"/>
<path transform="translate(873,1016)" d="m0 0 1 3 2 1-11 8-8 1v2l-8 7-17 16-4 3-3 1 2-4 24-24 8-7 4-3 2 1-2 4 4-1 2-5z" fill="#0360A6"/>
<path transform="translate(1161,845)" d="m0 0h3l-3 9-1 7-10 22-2 6-4-2 4-11 5-10 2-5-6 6h-2l2-5 4-8 2 1 3-6h2z" fill="#0074A7"/>
<path transform="translate(327,1157)" d="m0 0 5 4 7 8 9 10v4l2 3h-5l-3-4v-2h-3l-1 5-7-3-1-5 5-1-6-11-1-5z" fill="#0096D3"/>
<path transform="translate(958,757)" d="m0 0 4 1 15 13 8 6v2l5 2 3 2-2 18-2 2-1-1-1-15-1-5-4-1v-2h-2l-5-5-6-4-9-8z" fill="#0382BC"/>
<path transform="translate(745,1023)" d="m0 0 5 1 6 5v2l4 2v2l4 2 5 5 7 6 4 6 2 1v2l4 2 3 3-7 1-7-8-10-10-3-5-10-9-7-6z" fill="#0074A8"/>
<path transform="translate(569,798)" d="m0 0 2 2-4 6-16 15-3 4h-2l-1-4-3-1 6-7 13-10z" fill="#0A72AC"/>
<path transform="translate(1262,1028)" d="m0 0 1 2 2 1 3 5 4 11v2h2l4 12 1 7 2 6v7h-2l-14-41-3-9z" fill="#0094D1"/>
<path transform="translate(801,1292)" d="m0 0 6 2 7 6v3h2l1 4v17l-5 10-7 6-5 5-7 2-8 3h-3v2l-2 1h-14v-1l18-4 12-5 9-6 5-6 3-7 1-6v-10l-2-5-4-5-7-5z" fill="#0074AE"/>
<path transform="translate(1392,1306)" d="m0 0h2l-2 5-6 9-3 5-8 11-1 2h-2v3l-4 4-6 8-5 4-6 7-2-1 9-13 5-5 6-8 2-3h2l2-4h2v-3h2l2-5 7-9z" fill="#00AAE6"/>
<path transform="translate(1131,937)" d="m0 0 13 1 9 2 1 1 10 1 1 3-30-3-15-1h-49v-1l9-1 46-1z" fill="#F2E183"/>
<path transform="translate(1033,1120)" d="m0 0 20 2 28 1 16 2 4 2h-35l-14-1v-1l-22-2z" fill="#0158AA"/>
<path transform="translate(617,954)" d="m0 0 10 1 21 7 13 5 16 7 7 3-4 2-11-5-6-3-9-2-12-5-13-5-12-4z" fill="#0561AD"/>
<path transform="translate(863,1009)" d="m0 0 1 3-2 5-4 2-1 2h-2l-2 4-5 4h-5l1-9 6-4 2-3z" fill="#FFCF49"/>
<path transform="translate(933,826)" d="m0 0h8l1 1 1 16-1 1h-8l-1-1z" fill="#F0F7DE"/>
<path transform="translate(1246,1038)" d="m0 0 4 2 5 10 2 8 1 14-2 2-8-22-2-7z" fill="#0159AD"/>
<path transform="translate(518,881)" d="m0 0h4l-2 5-7 3-8 2-12 4-7 1 4-6z" fill="#0265A4"/>
<path transform="translate(1278,928)" d="m0 0h1l-1 7-2 7-5 2-8 4-7 5-10 3h-7v6l-2-3v-5l15-3 10-6 10-9z" fill="#0798D3"/>
<path transform="translate(965,826)" d="m0 0h8l1 2v16h-9l-1-17z" fill="#F5F9DC"/>
<path transform="translate(1176,769)" d="m0 0h4l-2 4-5 5h-2l-1 5-1 41 10-3-3 3-8 4-1-22h-1v-20l-5-6-1-7 4 5 2 3h2l5-9z" fill="#0F80B1"/>
<path transform="translate(784,857)" d="m0 0h15l4 2v4l-4 2h-15l-4-2 1-4z" fill="#F8EB9F"/>
<path transform="translate(1028,1006)" d="m0 0h24l7 1v3l4 1-50-1-1-3z" fill="#0164B2"/>
<path transform="translate(951,795)" d="m0 0 5 1 1 1v19h-8v-16z" fill="#FAFADB"/>
<path transform="translate(689,980)" d="m0 0 15 8 15 9 20 14-3 1-12-8-8-4-9-6-17-9-2-4z" fill="#0762AF"/>
<path transform="translate(1090,1123)" d="m0 0h17l13 2 2 1v2h6l-4 2-30-1-13-1v-1l16-1-7-2z" fill="#005B9F"/>
<path transform="translate(968,795)" d="m0 0 5 2 1 4-1 15h-8v-14l1-6z" fill="#F7F9DC"/>
<path transform="translate(935,796)" d="m0 0h6l1 1v14l-1 5h-7v-19z" fill="#FDFADA"/>
<path transform="translate(910,1220)" d="m0 0 5 3 7 7 2 4v10l-3 10-5 6-1-3 3-5 1-5-1-13-3-5v-3l-3-1v-2h-2z" fill="#F9E074"/>
<path transform="translate(949,826)" d="m0 0h8v18h-8l-1-17z" fill="#F7FADD"/>
<path transform="translate(738,982)" d="m0 0 4 2 6 2 5 4v2l5 2 12 11 4 6-3 1-8-8-11-9-14-11z" fill="#0066A4"/>
<path transform="translate(911,990)" d="m0 0 4 1-2 6-11 6-12 7 2-7 5-3h2v-2l6-5 5-2z" fill="#005A9E"/>
<path transform="translate(996,953)" d="m0 0 4 1-2 2-9 2-9 4-28 9h-5l4-3 24-9z" fill="#045EAD"/>
<path transform="translate(1045,1082)" d="m0 0h10l25 2v1l-16 2h-17l-16-3v-1z" fill="#015EB0"/>
<path transform="translate(616,1118)" d="m0 0h27l22 1 7 1v1h-67v-2z" fill="#0255AD"/>
<path transform="translate(1206,785)" d="m0 0h8l3 3 1 3v9l-3 6h5l-3 3-12 6-4-2h2v-2l9-6 3-7v-8l-1-3-7 2-5 2 2-5z" fill="#0A6FAF"/>
<path transform="translate(899,1123)" d="m0 0 12 1v1l-10 1-4 9-7 11-8 9-3-1 8-9 6-14 2-4h2z" fill="#015BA9"/>
<path transform="translate(758,1031)" d="m0 0 5 2 9 9 5 2 14 15-1 2-5-2-3-2v-2l-4-2-2-5-3-1v-2l-4-2-3-1-3-5-5-5z" fill="#0269A5"/>
<path transform="translate(510,936)" d="m0 0m-33 0h29l4 2-41 4-7-1 3-3z" fill="#FCDB5F"/>
<path transform="translate(674,1116)" d="m0 0h3v2l17 1 5 1v2l3 1h-25l-6-1v-1l-6-1 1-3h8z" fill="#0157A1"/>
<path transform="translate(778,1089)" d="m0 0 6 1 2 4v4l-3 3-5-3h-6l-1-3-5-1-1-2 9-2z" fill="#0155AC"/>
<path transform="translate(1169,908)" d="m0 0 6 1 26 11 6 3v1l-9-1-14-3-4-6-5-2-2 2-1-3z" fill="#0060A2"/>
<path transform="translate(791,1132)" d="m0 0 5 1 7 6 3 7-1 7-5 8-4 3h-2v-2h2l2-4 2-5v-8l-5-10z" fill="#F8E178"/>
<path transform="translate(487,752)" d="m0 0 5 1 3 3-1 7-3 3h-7l-5-5v-2l6-3 2 4h2l-2-4z" fill="#F1F6DB"/>
<path transform="translate(534,717)" d="m0 0 2 1 1 4 2 5-2 3-1 11-2 4h-2v2l-5-2 4-1v-16l-1-3h2l1-7z" fill="#086EB2"/>
<path transform="translate(596,751)" d="m0 0 4 2-5 9-4 5-5 5-2 3v-3l-5-2v-4l10-4 5-7z" fill="#F7F8DA"/>
<path transform="translate(556,824)" d="m0 0h10l7 4 3 5v8l-5 5-6 1-5-5v-5l5-3 3 1 1 3h-4-2l1 5 9-1v-7l-4-6-7-3-6-1z" fill="#0A79AF"/>
<path transform="translate(489,940)" d="m0 0h51l8 1-1 3-15-1h-29l-3-1-11-1z" fill="#015CAA"/>
<path transform="translate(987,856)" d="m0 0h9l10 2-1 6-5 1-10-2-3-4z" fill="#0072A7"/>
<path transform="translate(1026,844)" d="m0 0 6 1v17l-7-1v-16z" fill="#DEF2E0"/>
<path transform="translate(379,1215)" d="m0 0 7 6 7 8 9 10 2 7-8-6v-3h-2l-4-4v-2l-4-1-1-1-1-7-5-5z" fill="#0096D3"/>
<path transform="translate(911,1029)" d="m0 0 4 1-28 14-9 5h-2v-2l19-12 5-3z" fill="#015C9F"/>
<path transform="translate(504,734)" d="m0 0 7 1 8 3 6 4 1 2h-2l1 5 3 6h-2l-7-9-7-5-3-1v-4l-5-1z" fill="#0773AC"/>
<path transform="translate(573,916)" d="m0 0 12 1 21 5v2l-7 1-6-1-4-3-7-2v2h-6l-3-3z" fill="#FFDA57"/>
<path transform="translate(1041,844)" d="m0 0h6v17l-1 1h-5l-1-16z" fill="#EEF8E0"/>
<path transform="translate(1167,791)" d="m0 0h1v35l-5 15-3 3 1-6 3-14 2-18z" fill="#015BA1"/>
<path transform="translate(1101,707)" d="m0 0h1l1 6 1 27-5-1v-17z" fill="#036EAE"/>
<path transform="translate(799,1060)" d="m0 0h15l8 1v3l-14 1-11-1h-5l-1-3z" fill="#025FA3"/>
<path transform="translate(568,868)" d="m0 0h5l-2 2-3 1-1 2-10 3-17 2 1-3z" fill="#0064A2"/>
<path transform="translate(803,847)" d="m0 0h17l1 2-3 4-10 1-6-3z" fill="#FEDB59"/>
<path transform="translate(1254,696)" d="m0 0h1l2 16 2 11v21l-2-1-3-32-1-14z" fill="#18A1D6"/>
<path transform="translate(945,634)" d="m0 0h1l2 13-3 4h-3v6l-4 10h-1l1-9 6-23z" fill="#067EB6"/>
<path transform="translate(1161,845)" d="m0 0h3l-3 9v5l-5 2-2-1-2 4-3 3h-2l2-5 4-8 2 1 3-6h2z" fill="#0276A9"/>
<path transform="translate(575,770)" d="m0 0 2 1-1 10-1 5-1 14-3 3-3-1 2-3h-2l4-16z" fill="#056FA8"/>
<path transform="translate(900,1036)" d="m0 0 3 1-16 9-16 8-17 12-2 2-3-1 10-8 4-3h2v-2l7-4 4-2 6-2z" fill="#0080BC"/>
<path transform="translate(816,1026)" d="m0 0h10l-2 4-10 11-7 10-5-5v-2l8-2 8-10 2-5z" fill="#0060A0"/>
<path transform="translate(344,668)" d="m0 0h1l-1 11-5 32-2 20h-1v-20l2-12 2-13z" fill="#1DA4D7"/>
<path transform="translate(583,802)" d="m0 0h1l1 55-1 6 2 1h-4v-26z" fill="#19A1D6"/>
<path transform="translate(481,791)" d="m0 0 5 2v5l-5 4v-2l-9-1-2-1 1-4h4l2 1 1-3z" fill="#FFD956"/>
<path transform="translate(1018,819)" d="m0 0 5 1v17h-6v-17z" fill="#F4F8DD"/>
<path transform="translate(851,1030)" d="m0 0v3l-3 4-2 4-13 12-5 4-3 1 2-4z" fill="#006AA8"/>
<path transform="translate(874,822)" d="m0 0h6l1 2v9l-1 1h-8v-8z" fill="#77D3ED"/>
<path transform="translate(722,1146)" d="m0 0h1l2 10 6 7 11 5 9 2-4 2-7-1-9-4-4-2-7-13v-3l2 1z" fill="#0064A5"/>
<path transform="translate(531,969)" d="m0 0 16 1 4 2-34 3h-6l3-3z" fill="#0165B1"/>
<path transform="translate(586,942)" d="m0 0h7l5 4h10l3 5-12-2-16-3z" fill="#F9DC67"/>
<path transform="translate(591,766)" d="m0 0h2v4h2v2l3 1h-12v2h6l-4 3-3 9-1 7h-1v-18l6-9z" fill="#0192CE"/>
<path transform="translate(847,1271)" d="m0 0 16 2h13l13-1-1 2-9 2h-17l-15-1z" fill="#077EB5"/>
<path transform="translate(569,798)" d="m0 0 2 2-4 6-17 16-1-3h2l2-4 5-4 3-8z" fill="#0562A8"/>
<path transform="translate(1088,1010)" d="m0 0h20l-2 4-5 1h-10l-8-1-1-2h6z" fill="#005EA2"/>
<path transform="translate(888,822)" d="m0 0h7l1 5-1 8h-6l-1-1z" fill="#6CCBE7"/>
<path transform="translate(543,1082)" d="m0 0h15v1l-7 1-6 2-17 1-7-1-1-2z" fill="#0164B1"/>
<path transform="translate(1093,936)" d="m0 0h17l12 2v1h-42v-1z" fill="#FFDB59"/>
<path transform="translate(1035,819)" d="m0 0 4 2-1 16-3 1-2-1v-17z" fill="#FDFADA"/>
<path transform="translate(1167,763)" d="m0 0 5 1 1 6 2 1-6 4-4-2-2-4 1-4z" fill="#FED956"/>
<path transform="translate(1074,969)" d="m0 0h13v3h2v2h-9l-25-2v-1l5-1z" fill="#0163AF"/>
<path transform="translate(529,908)" d="m0 0h9l9 1 3 3h-19l-16-2v-1z" fill="#0169A5"/>
<path transform="translate(1011,844)" d="m0 0h5l1 1v14h-6z" fill="#FEFAD9"/>
<path transform="translate(683,991)" d="m0 0 6 1 19 10 16 10-3 1-18-10-3-1v-2l-6-2-11-6z" fill="#0092CF"/>
<path transform="translate(689,815)" d="m0 0 4 1 1 2v15l-3 1-2-1z" fill="#EFF9E2"/>
<path transform="translate(478,803)" d="m0 0 3 1 3 9 4 5 6 3 9 2-3 2-8-1-8-5-5-8z" fill="#086FAF"/>
<path transform="translate(715,678)" d="m0 0h3l-2 5-8 9-5 7-7 7 1-5 1-2h2l2-4 12-16z" fill="#0279B3"/>
<path transform="translate(429,485)" d="m0 0 1 3-8 10-7 9-4 7-7 11-1-4 10-15z" fill="#16A0D6"/>
<path transform="translate(801,1292)" d="m0 0 6 2 7 6v3h2l1 4v17l-1 2-3-1 1-7v-10l-2-5-4-5-7-5z" fill="#0271A9"/>
<path transform="translate(678,816)" d="m0 0h4v17h-5v-16z" fill="#FAFADC"/>
<path transform="translate(1138,827)" d="m0 0 7 1 2 2v6l-3 2-5-1-1-3 8 1-2-4-6-1-4 4-1 13-2-4v-7l2-6z" fill="#0B7EB1"/>
<path transform="translate(782,882)" d="m0 0h7v2l9 3v1l-9 1-9 3 2-5z" fill="#0067A4"/>
<path transform="translate(592,745)" d="m0 0 3 1 1 6-4 8-5 4-8 3-2 4h-1v-5l10-5 3-1 2-5 1-7z" fill="#0273AA"/>
<path transform="translate(722,631)" d="m0 0h2v25l-1 13-2 2-1-4z" fill="#228FBC"/>
<path transform="translate(1176,769)" d="m0 0h4l-2 4-5 5h-2l-1 5-2 3h-2l-5-6-1-7 4 5 2 3h2l5-9z" fill="#0A7CB1"/>
<path transform="translate(368,962)" d="m0 0 3 2-1 4-1 1-2 4-2 7-2 1-1 3-2-4 6-16z" fill="#0155AA"/>
<path transform="translate(899,776)" d="m0 0h1v23l-1 29h-1l-1-12v-23l1-16z" fill="#007CB5"/>
<path transform="translate(704,1287)" d="m0 0h4v2l-9 6-5 5-4 6-1-4 3-6 7-7z" fill="#0678AD"/>
<path transform="translate(958,757)" d="m0 0 4 1 13 11-1 4-5-3-9-8z" fill="#0881BA"/>
<path transform="translate(1317,1132)" d="m0 0h2l-2 6-3 3-1 3h-3v-2l-2-1-2-5 2-2 7-1z" fill="#0095D2"/>
<path transform="translate(847 1e3)" d="m0 0m-2 1h2l-1 4-10 10h-2l-1-5 3-3 6-4h3z" fill="#025FA0"/>
<path transform="translate(801,863)" d="m0 0h2v2l-8 4h-11l-3-2-1-3h19z" fill="#0069A5"/>
<path transform="translate(883,625)" d="m0 0h2v12l2 4v5l-8 1 3-9v-11z" fill="#0B80BA"/>
<path transform="translate(787,889)" d="m0 0h12l-1 3-6 1h-8l-3 1-1 6-2-1 1-5 5-4z" fill="#F9E994"/>
<path transform="translate(921,1253)" d="m0 0h2l-1 5-5 5-13 7h-4v-2l14-7z" fill="#0078B2"/>
<path transform="translate(488,750)" d="m0 0 6 1 3 3 1 6-2 1-3-6-6-3 2 5v4l-4-2-1-5z" fill="#0268A6"/>
<path transform="translate(580,745)" d="m0 0 5 1 2 2-1 7h-5l-2-2v-6z" fill="#249ECC"/>
<path transform="translate(931,983)" d="m0 0h3l3 3 5-2 4 1-8 3-15 3v-3l4-2 1-2z" fill="#0066A9"/>
<path transform="translate(1239,962)" d="m0 0 2 2 4 11 3 7 4 16 3 1-3 3-13-37z" fill="#008FCC"/>
<path transform="translate(774,1050)" d="m0 0 5 3 3 2v2l4 2 3 3-7 1-7-8z" fill="#017FBB"/>
<path transform="translate(738,1019)" d="m0 0 8 6 11 10 8 7-1 2-15-13-11-9z" fill="#0062A2"/>
<path transform="translate(478,758)" d="m0 0 2 3 4 4h7l3-4 2-3 1 5-5 5-8 1-6-4z" fill="#0C76B0"/>
<path transform="translate(1265,1186)" d="m0 0 1 2-2 5 2 5-1 4-4-2-2-2 1-6z" fill="#00ADE9"/>
<path transform="translate(974,770)" d="m0 0 4 2 7 5v2l5 2 3 2-1 4-2-4-8-2v-2h-2l-5-5z" fill="#0277B1"/>
<path transform="translate(389,547)" d="m0 0 1 3-11 21-3 7-1-3 5-13 3-4 2-6h2l1-4z" fill="#19A2D6"/>
<path transform="translate(805,534)" d="m0 0h1l1 16 2 5h-2l-1 11h-2v-11l-2-1 3-1z" fill="#0576B3"/>
<path transform="translate(895,1134)" d="m0 0 1 3-9 13-5 5-3-1 8-9 7-10z" fill="#0157A9"/>
<path transform="translate(749,1021)" d="m0 0 5 2 12 11 9 8-3 1-9-9-5-3-4-5z" fill="#0464A3"/>
<path transform="translate(833,839)" d="m0 0h12l-1 5h-9l-3-1z" fill="#F6EBA4"/>
<path transform="translate(1033,1120)" d="m0 0 30 3v1h-20l-13-1z" fill="#0255AD"/>
<path transform="translate(735,1050)" d="m0 0 11 7 15 11v2l-4-2-10-7-2-1v-2h-3v-2h-3v-2h-3v-2l-3-1z" fill="#007AB6"/>
<path transform="translate(654,1061)" d="m0 0 9 1 7 1-2 4h-8l-2-2-5-2z" fill="#0095D2"/>
<path transform="translate(528,847)" d="m0 0 3 2 1 1v9l-3 5-2-2z" fill="#0095D2"/>
<path transform="translate(859,752)" d="m0 0 8 1v7h-7l-1-1z" fill="#EDF7DF"/>
<path transform="translate(1135,866)" d="m0 0 3 1 1 7-1 7-2 3-2-11v-6z" fill="#0066A3"/>
<path transform="translate(532,772)" d="m0 0h1v14h-2v11l-2 2v-20h2z" fill="#0066A4"/>
<path transform="translate(487,752)" d="m0 0 5 1 3 3v5l-5 2-2-6z" fill="#F8EB9E"/>
<path transform="translate(1158,1094)" d="m0 0 12 1 6 1-3 3h-7l-12-3z" fill="#0160AF"/>
<path transform="translate(582,864)" d="m0 0 4 1-9 5-4 2h-6l1-2 3-1-1-2z" fill="#046CA8"/>
<path transform="translate(565,834)" d="m0 0 3 1 1 3h-4-2l1 5 7 1v2l-6 1-5-5v-5z" fill="#0771AD"/>
<path transform="translate(374,579)" d="m0 0 1 2-10 23h-1l1-10 8-14z" fill="#19A1D6"/>
<path transform="translate(351,1184)" d="m0 0 7 6 11 12 1 3-2 1v-2l-3-1v-2h-2l-1-4-3-1-2-5h-2l-4-5z" fill="#0095D2"/>
<path transform="translate(738,982)" d="m0 0 8 4v2l4 2 11 10 3 3-4-1-9-8-13-10z" fill="#0062A1"/>
<path transform="translate(888,812)" d="m0 0h6l2 1v6h-8z" fill="#CEEEE3"/>
<path transform="translate(699,785)" d="m0 0h5l1 1v9h-5z" fill="#FDFADA"/>
<path transform="translate(689,785)" d="m0 0 5 1v8l-5 1-1-1v-7z" fill="#F4F9DE"/>
<path transform="translate(888,753)" d="m0 0h7l1 7h-8z" fill="#DCF3E2"/>
<path transform="translate(775,1127)" d="m0 0 9 1 7 3v1l-10 1-5-3z" fill="#FBE071"/>
<path transform="translate(487,891)" d="m0 0 2 1-3 5-9 3-2-1 1-4z" fill="#066AA7"/>
<path transform="translate(700,815)" d="m0 0 5 1v8l-5 1-1-9z" fill="#FBFADC"/>
<path transform="translate(1208,787)" d="m0 0 3 4-1 4-7 1-1-5z" fill="#8EC5CE"/>
<path transform="translate(678,785)" d="m0 0 5 1-1 9-5-1v-8z" fill="#F9FADC"/>
<path transform="translate(934,1136)" d="m0 0h5v3l-4 1v6l-7-5 1-3z" fill="#017FBB"/>
<path transform="translate(1264,1089)" d="m0 0 5 4 3 7-1 5-1-2h-2l-5-13z" fill="#015BAE"/>
<path transform="translate(500,824)" d="m0 0h10l3 2 1 5 1 4-3-1-4-6-8-3z" fill="#0061A1"/>
<path transform="translate(1199,814)" d="m0 0h4v2l-14 6h-2v-2l-4-1 13-4z" fill="#0268AF"/>
<path transform="translate(562,1120)" d="m0 0h11l6 1v1l-5 1h-18v-2z" fill="#0255AD"/>
<path transform="translate(573,916)" d="m0 0 12 1 7 2-4 1-6-1v2h-6l-3-3z" fill="#FFDB59"/>
<path transform="translate(678,800)" d="m0 0h5v8l-5 1-1-1v-7z" fill="#F5FADE"/>
<path transform="translate(1392,1306)" d="m0 0h2l-2 5-6 9-3 5h-3l2-4 6-8z" fill="#00A4E0"/>
<path transform="translate(893,1036)" d="m0 0 2 1-1 3-16 9h-2v-2z" fill="#0063A3"/>
<path transform="translate(715,1038)" d="m0 0 6 1 12 9 2 3-5-2-13-8-2-1z" fill="#015BA5"/>
<path transform="translate(859,783)" d="m0 0h6l1 1v6h-7l-1-4z" fill="#D3F0E3"/>
<path transform="translate(888,774)" d="m0 0h8l1 4-1 2h-8z" fill="#DBF4E5"/>
<path transform="translate(945,634)" d="m0 0h1l2 13h-5l-1 2v-7z" fill="#027AB1"/>
<path transform="translate(937,1014)" d="m0 0 4 1-12 4-10 4-6 2 1-2h2v-2z" fill="#0089C6"/>
<path transform="translate(1215,952)" d="m0 0 22 2-1 2h-15l-5-2z" fill="#015DAA"/>
<path transform="translate(888,783)" d="m0 0 8 1v6h-7z" fill="#C4EDE8"/>
<path transform="translate(588,772)" d="m0 0 13 1 3 2v2l-18-2v-2z" fill="#0083BE"/>
<path transform="translate(747,1171)" d="m0 0 23 1v1h-7v2h-7l-9-3z" fill="#015EA7"/>
<path transform="translate(1290,1141)" d="m0 0 1 3-3 3h-21v-1l13-1 4-2z" fill="#0163AD"/>
<path transform="translate(812,1040)" d="m0 0 1 3-6 8-5-5v-2l8-2z" fill="#005EA2"/>
<path transform="translate(689,800)" d="m0 0 5 1v8h-5l-1-7z" fill="#F6FADE"/>
<path transform="translate(447,463)" d="m0 0 1 2-8 10-7 9h-2l2-5 5-6h2l2-4z" fill="#149FD5"/>
<path transform="translate(478,431)" d="m0 0 2 1-17 17-2 3h-2l2-4 8-9h2l1-3h2v-2z" fill="#0497D2"/>
<path transform="translate(803,847)" d="m0 0h17l1 2-3 4h-2l1-5h-11l-1 4-3-1z" fill="#FEEA93"/>
<path transform="translate(543,742)" d="m0 0h3l-1 5-5 3-5-6z" fill="#0267A6"/>
<path transform="translate(369,1030)" d="m0 0h4l-1 5-5 1v1h-6l2-4z" fill="#0068A5"/>
<path transform="translate(888,764)" d="m0 0h7l1 5-1 1h-7z" fill="#EEF9E2"/>
<path transform="translate(873,1016)" d="m0 0 1 3 2 1-11 8h-2l2-4h2l2-5z" fill="#0068A5"/>
<path transform="translate(1112,1013)" d="m0 0h8l3 2-5 3h-6l-2-1v-2h2z" fill="#005C9F"/>
<path transform="translate(862,991)" d="m0 0h2l-1 3-9 7-6 5v-3l8-8z" fill="#0768A7"/>
<path transform="translate(891,969)" d="m0 0 2 1v2l-14 9v-3h2v-2l7-6z" fill="#0261A1"/>
<path transform="translate(859,812)" d="m0 0h7l1 5-1 1h-7z" fill="#DFF4E4"/>
<path transform="translate(859,803)" d="m0 0h6l1 1v5h-7l-1-5z" fill="#D7F4E8"/>
<path transform="translate(700,800)" d="m0 0h5v9h-5z" fill="#F4FADF"/>
<path transform="translate(493,734)" d="m0 0h11l5 2v3l-9-2-10-1z" fill="#035AAC"/>
<path transform="translate(1248,975)" d="m0 0 3 3 3 9 1 5h-3l-4-13z" fill="#0095D2"/>
<path transform="translate(1134,873)" d="m0 0h1l1 6v14l-9-2v-1l6-2 1-8z" fill="#DBEFDC"/>
<path transform="translate(861,793)" d="m0 0 5 1v5l-1 1h-5l-1-1v-5z" fill="#DFF3E2"/>
<path transform="translate(863,763)" d="m0 0 3 1v6h-7v-6z" fill="#F8FADD"/>
<path transform="translate(813,1325)" d="m0 0 2 1-2 7-12 10-2-1 10-9z" fill="#006EAB"/>
<path transform="translate(196,1051)" d="m0 0 5 2-1 4h-2l-1 3-3-1-1-4z" fill="#0095D2"/>
<path transform="translate(617,954)" d="m0 0 10 1 10 4 1 2-6-1-15-5z" fill="#035DAB"/>
<path transform="translate(888,792)" d="m0 0 8 1-1 5h-7z" fill="#D8F3E6"/>
<path transform="translate(784,1179)" d="m0 0 2 3 3 2-2 1h-6v-2h-10v-1l9-2z" fill="#0095D2"/>
<path transform="translate(722,1146)" d="m0 0h1l2 10 5 7-1 2h-2l-7-13v-3l2 1z" fill="#0070A6"/>
<path transform="translate(356,1048)" d="m0 0 1 4-5 15-2-4 4-12z" fill="#015DAE"/>
<path transform="translate(874,813)" d="m0 0h6l1 1v5h-6l-2-5z" fill="#ECF8E1"/>
<path transform="translate(591,766)" d="m0 0h2v4h2v2l3 1h-10l-3 1 2-5z" fill="#17A0D6"/>
<path transform="translate(878,763)" d="m0 0h2l1 6-1 1h-6v-6z" fill="#E7F7E3"/>
<path transform="translate(570,749)" d="m0 0h1l2 9 4 5 3 2-5 2-5-7z" fill="#0775AD"/>
<path transform="translate(571,740)" d="m0 0h4l-2 4-2 5-1 8-2-3v-7z" fill="#0364A4"/>
<path transform="translate(944,625)" d="m0 0h3l2 21-2-2-2-9h-1z" fill="#A4D4D7"/>
<path transform="translate(1140,827)" d="m0 0 5 1 2 2v6l-3 2-5-1-1-3 8 1-2-4-4-2z" fill="#056BA8"/>
<path transform="translate(1206,785)" d="m0 0h8l3 3v2l-3-1v-2l-7 2-5 2 2-5z" fill="#0271AD"/>
<path transform="translate(476,748)" d="m0 0h2l1 15-3-1-2-7v-6z" fill="#0363A6"/>
<path transform="translate(533,733)" d="m0 0 2 1-1 3 2 1-1 6-3 1v2l-5-2 4-1 1-8z" fill="#0063A2"/>
<path transform="translate(715,678)" d="m0 0h3l-2 5-9 8v-3z" fill="#0A87C0"/>
<path transform="translate(600,946)" d="m0 0h8l3 5-12-2z" fill="#F7DD6C"/>
<path transform="translate(1130,910)" d="m0 0h11l6 1-2 2h-14z" fill="#006AA5"/>
<path transform="translate(859,822)" d="m0 0h6l1 5-1 1h-6z" fill="#E6F6E3"/>
<path transform="translate(573,792)" d="m0 0h1v8l-3 3-3-1 2-3h-2l2-5z" fill="#127BBC"/>
<path transform="translate(859,774)" d="m0 0h6l1 1v5h-6l-1-1z" fill="#F1F9E1"/>
<path transform="translate(875,753)" d="m0 0h6v6h-6l-1-5z" fill="#F0F8DF"/>
<path transform="translate(825,408)" d="m0 0 4 1 1 3-3 3-4-1-1-4z" fill="#FFFBDA"/>
<path transform="translate(796,1035)" d="m0 0 4 5 3 2 7-2 3-2-2 4-3 2-7 1-6-8z" fill="#0067A4"/>
<path transform="translate(669,972)" d="m0 0 6 1 9 4-4 2-11-5z" fill="#0662AC"/>
<path transform="translate(888,803)" d="m0 0h5l2 2-1 4h-6z" fill="#E5F8E7"/>
<path transform="translate(400,527)" d="m0 0h2l-2 5-8 14h-2l2-5 7-13z" fill="#1FA4D8"/>
<path transform="translate(847,1271)" d="m0 0 16 2-3 2h-13z" fill="#0E87BE"/>
<path transform="translate(396,869)" d="m0 0 4 1 1 4-2 2h-4l-1-5z" fill="#FFFBDA"/>
<path transform="translate(1138,829)" d="m0 0 6 1 2 5h-6v-2h-2l-1-3z" fill="#E7E9B0"/>
<path transform="translate(890,826)" d="m0 0 3 1 2 4v3h-5l-1-1v-6z" fill="#F3FADF"/>
<path transform="translate(628,815)" d="m0 0h6l-1 5-5 1-1-5z" fill="#E9F7E1"/>
<path transform="translate(874,775)" d="m0 0h7l-1 5h-6l-1-4z" fill="#F0F9E1"/>
<path transform="translate(592,745)" d="m0 0 3 1 1 6-2 5h-3l1-9z" fill="#0066A2"/>
<path transform="translate(523,743)" d="m0 0 7 3 2 1v2l2 1-4 2-1-2-5-3z" fill="#0081BE"/>
<path transform="translate(774,1012)" d="m0 0 4 1 3 4v2l3 1v2l-4-1-6-6z" fill="#0068A4"/>
<path transform="translate(833,995)" d="m0 0 3 1-1 3h-13v-2z" fill="#0065A3"/>
<path transform="translate(544,825)" d="m0 0 1 4-6 12-1-4 3-9h2z" fill="#0072A8"/>
<path transform="translate(987,1044)" d="m0 0 4 3-3 3h-12v-1l6-2h5z" fill="#00A3E0"/>
<path transform="translate(1243,953)" d="m0 0h6l-3 3h-7v6l-2-3v-5z" fill="#0596D1"/>
<path transform="translate(920,952)" d="m0 0m-2 1h2v3l-9 5h-2l2-4 4-3z" fill="#005E9F"/>
<path transform="translate(329,925)" d="m0 0 5 1 4 3-4 1 1 6-3-3-3-5z" fill="#FEEFA7"/>
<path transform="translate(851,1030)" d="m0 0v3l-3 4v2l-7 4h-3z" fill="#0F6EB3"/>
<path transform="translate(417,981)" d="m0 0 1 3-1 1-12 1-3-2z" fill="#0255AD"/>
<path transform="translate(1159,858)" d="m0 0 1 3-4 9h-2l-1-6 5-4z" fill="#006BA5"/>
<path transform="translate(832,838)" d="m0 0h9v1l-8 1-1 3h3l-2 4-3-1-1-4z" fill="#0377AB"/>
<path transform="translate(628,833)" d="m0 0h5l1 5-1 1h-5z" fill="#DFF6E6"/>
<path transform="translate(548,816)" d="m0 0h1l1 7-4 2-1-4-3-1 3-3z" fill="#0071A6"/>
<path transform="translate(604,776)" d="m0 0h2l2 4v6l-2-2-2 3-2-10z" fill="#0090CD"/>
<path transform="translate(765,1069)" d="m0 0 2 4-6 2-4 2-3-1 9-6z" fill="#015A9E"/>
<path transform="translate(384,992)" d="m0 0h11l3 2-14 1-2-2z" fill="#0164B1"/>
<path transform="translate(1190,984)" d="m0 0 10 2 1 2h-12l-2-2z" fill="#01589E"/>
<path transform="translate(959,965)" d="m0 0 3 1-1 2-9 3h-5l4-3z" fill="#0461AC"/>
<path transform="translate(532,941)" d="m0 0h16l-1 3-15-1z" fill="#0155AB"/>
<path transform="translate(1194,918)" d="m0 0 10 3 3 3-9-1-5-1z" fill="#0677AE"/>
<path transform="translate(554,873)" d="m0 0m-9 1h9v2l-10 2h-4l1-3z" fill="#0068A5"/>
<path transform="translate(1124,846)" d="m0 0 4 2 3 5 1 10-2-4-1-8h-4z" fill="#E7F3DB"/>
<path transform="translate(876,793)" d="m0 0 5 1-1 4-6 1-1-3z" fill="#F0F9E1"/>
<path transform="translate(1176,769)" d="m0 0h4l-2 4-6 5 1-6z" fill="#7EB4B9"/>
<path transform="translate(816,1307)" d="m0 0h1v17l-1 2-3-1 1-7h1z" fill="#0681B8"/>
<path transform="translate(704,1287)" d="m0 0h4v2l-8 5h-2l1-4z" fill="#006FA6"/>
<path transform="translate(1114,1126)" d="m0 0 14 2-4 2-13-1-2-2z" fill="#0255AD"/>
<path transform="translate(724 1e3)" d="m0 0 5 2 10 7-3 1-12-8z" fill="#0A69B0"/>
<path transform="translate(950,938)" d="m0 0h3l-1 3-7 3-4-1 5-4z" fill="#005E9F"/>
<path transform="translate(651,824)" d="m0 0h4l1 5-1 1h-5v-5z" fill="#E0F3E1"/>
<path transform="translate(875,803)" d="m0 0h5l1 4-1 1h-6z" fill="#E9F9E5"/>
<path transform="translate(1254,696)" d="m0 0h1l1 6v10l-2-1-1-14z" fill="#159FD6"/>
<path transform="translate(732,688)" d="m0 0 4 2 7 10-1 4-7-11z" fill="#037CB3"/>
<path transform="translate(429,485)" d="m0 0 1 3-8 10-3 3v-3z" fill="#1BA3D7"/>
<path transform="translate(1160,484)" d="m0 0 6 5 4 6-1 3-9-12z" fill="#18A1D6"/>
<path transform="translate(835,1268)" d="m0 0 9 2 4 2-1 2-9-2z" fill="#006FAD"/>
<path transform="translate(1387,1054)" d="m0 0 3 1v5l-1 2-4-2-1-4z" fill="#0095D2"/>
<path transform="translate(187,1052)" d="m0 0 3 3v2l2 1-1 3-5-1v-7z" fill="#0095D2"/>
<path transform="translate(1123,842)" d="m0 0 4 1 4 4-1 4-7-6z" fill="#0068A5"/>
<path transform="translate(642,833)" d="m0 0 3 1v5h-6l1-5z" fill="#DFF7E8"/>
<path transform="translate(874,822)" d="m0 0h6l1 4-1 1h-5z" fill="#B8EFF6"/>
<path transform="translate(875,784)" d="m0 0h5l1 3-1 2h-6z" fill="#EFF9E2"/>
<path transform="translate(896,778)" d="m0 0 2 1-1 9-1-4-3-1-4-3h7z" fill="#1CA6DA"/>
<path transform="translate(825,1218)" d="m0 0 4 1-9 7h-2l1-4h2z" fill="#0673AA"/>
<path transform="translate(1271,1074)" d="m0 0 4 5 1 4-2 5-3-1h2l-2-9z" fill="#0255AD"/>
<path transform="translate(860,1028)" d="m0 0 3 1-9 7-3-1 4-4h2v-2z" fill="#017FBB"/>
<path transform="translate(830,985)" d="m0 0h5l1 4-3 1-6-2z" fill="#FFCF49"/>
<path transform="translate(810,974)" d="m0 0h6v2h-3v2l-9 2 2-1 1-2z" fill="#046CA7"/>
<path transform="translate(902,962)" d="m0 0m-2 1h2l-1 4-6 4h-2l1-4z" fill="#0A69A7"/>
<path transform="translate(1184,945)" d="m0 0 6 1 3 1v2l-17-2v-1z" fill="#EFE28C"/>
<path transform="translate(967,932)" d="m0 0h2v2l-10 4-4-1 5-3z" fill="#005E9F"/>
<path transform="translate(420,917)" d="m0 0 3 1v3l-5 1h-7l2-2z" fill="#076FAD"/>
<path transform="translate(847,840)" d="m0 0h7l4 2h-3v2l-5 1-1-4z" fill="#017FBB"/>
<path transform="translate(1168,817)" d="m0 0h1v7l10-3-3 3-8 4z" fill="#1097CF"/>
<path transform="translate(641,814)" d="m0 0 3 1v5l-5 1v-6z" fill="#E7F6E1"/>
<path transform="translate(804,1170)" d="m0 0 4 1-6 3v1h-5l-1-2 3-2z" fill="#0166A4"/>
<path transform="translate(901,1125)" d="m0 0h8l-3 2-5 3v3h-2v2l-2-1z" fill="#017FBB"/>
<path transform="translate(858,1026)" d="m0 0m-1 1m-1 1 1 3-8 7-2-2 5-6z" fill="#01589F"/>
<path transform="translate(900,994)" d="m0 0h3l-2 4h-2v2l-5 1 1-4z" fill="#0861B0"/>
<path transform="translate(1275,926)" d="m0 0h3l-1 5-4 3v-5l-2-1z" fill="#FEEEA1"/>
<path transform="translate(559,810)" d="m0 0v3l-9 9-1-3h2l2-4z" fill="#0158A3"/>
<path transform="translate(478,758)" d="m0 0 2 3 4 4 6 1v1l-8 1-4-3z" fill="#0A7FB2"/>
<path transform="translate(828,1025)" d="m0 0 4 1-2 5-6 1z" fill="#FFD04A"/>
<path transform="translate(1134,858)" d="m0 0 2 1 1 7-2 1-2 3v-9z" fill="#0773AB"/>
<path transform="translate(518,743)" d="m0 0 4 1 6 10-2 1-7-9z" fill="#0062A2"/>
<path transform="translate(687,500)" d="m0 0h5l1 4-1 1h-5z" fill="#FFFBDA"/>
<path transform="translate(921,1253)" d="m0 0h2l-1 5-5 4-3-1z" fill="#0872AC"/>
<path transform="translate(895,1127)" d="m0 0h2l-3 9-4 4 2-7z" fill="#01599E"/>
<path transform="translate(1281,1079)" d="m0 0 2 3 1 6 1 7-2-2-4-12h2z" fill="#008FCC"/>
<path transform="translate(661,1063)" d="m0 0h9l-2 4h-5v-2l-3-1z" fill="#009BD7"/>
<path transform="translate(777,1051)" d="m0 0 6 2 5 6h-3l-3-2v-2l-4-2z" fill="#0075A8"/>
<path transform="translate(625 1e3)" d="m0 0 10 1-2 2-7 1-2-1z" fill="#01599E"/>
<path transform="translate(652,815)" d="m0 0 4 1v5l-5-1z" fill="#F4F8DD"/>
<path transform="translate(535,741)" d="m0 0 4 3h-4zm-1 3 4 2 2 4-3 1v-3l-5-1v-2z" fill="#0487C0"/>
<path transform="translate(394,1236)" d="m0 0 4 1 6 7-1 2-7-6v-3z" fill="#00AEEB"/>
<path transform="translate(1246,1027)" d="m0 0 2 2v3l-2 4-3-1-1-3h2l1-4z" fill="#0155AC"/>
<path transform="translate(423,920)" d="m0 0m-5 1h5l-4 2-13 2 2-3z" fill="#F5D75C"/>
<path transform="translate(631,824)" d="m0 0 3 1v4h-6v-4z" fill="#ECF9E3"/>
<path transform="translate(1101,707)" d="m0 0h1l1 6v16h-1v-14h-2z" fill="#169FD4"/>
<path transform="translate(1109,429)" d="m0 0 8 6 2 2-1 3-9-9z" fill="#22A6D8"/>
</svg>
